<svg id="Lag_1" data-name="Lag 1" xmlns="http://www.w3.org/2000/svg" viewBox="0 0 1920 1080"><defs><style>.cls-1{fill:#d33700;}.cls-2{fill:#ff0;}.cls-3,.cls-8{fill:#ffdcbd;}.cls-4{fill:#fff;}.cls-5{fill:none;}.cls-32,.cls-6,.cls-7,.cls-9{isolation:isolate;}.cls-6{font-size:109.73px;}.cls-16,.cls-6,.cls-9{fill:#b31019;}.cls-6,.cls-7{font-family:HelveticaNeue-Bold, Helvetica Neue;font-weight:700;}.cls-7{font-size:28px;}.cls-32,.cls-7{fill:#2e3192;}.cls-8{stroke:#999;stroke-miterlimit:10;stroke-width:4px;}.cls-9{font-size:65px;font-family:HelveticaNeue-Medium, Helvetica Neue;font-weight:500;}.cls-10{fill:#333;}.cls-11{fill:#843c00;}.cls-12{fill:#001300;}.cls-13{fill:#d66b00;}.cls-14{fill:#080808;}.cls-15{fill:#282628;}.cls-17{fill:#91594e;}.cls-18{fill:#261402;}.cls-19{fill:#4f2e27;}.cls-20{fill:#6d131c;}.cls-21{fill:#141314;}.cls-22{fill:#494549;}.cls-23{fill:#282828;}.cls-24{fill:#afafaf;}.cls-25{fill:#141312;}.cls-26{fill:#e0781b;}.cls-27{fill:#3f3225;}.cls-28{fill:#895b24;}.cls-29{fill:#231f20;}.cls-30{fill:#e8c600;}.cls-31{fill:#dba703;}.cls-32{font-size:35px;font-family:BrushScriptMT, Brush Script MT;}</style></defs><rect class="cls-1" width="1920" height="1080"/><path class="cls-2" d="M1438,90.3l.2,174.5.2,174.5,237.8-87.5,73.1-26.9c56.3-20.7,56.2-100.3-.1-120.9l-73.1-26.7Z"/><path class="cls-2" d="M1439.1,89.8l.3,174.5.3,174.5-238-86.8-73.1-26.7c-56.3-20.5-56.5-100.1-.2-120.9l73-26.9Z"/><path class="cls-3" d="M1437.7,101.3l.2,163.6.2,163.6,230.4-82,70.8-25.2c54.5-19.4,54.4-94-.1-113.3l-70.8-25.1Z"/><path class="cls-3" d="M1438.8,100.8l.3,163.6.3,163.6-230.6-81.4-70.9-25c-54.6-19.3-54.7-93.9-.2-113.3l70.8-25.3Z"/><circle class="cls-2" cx="1532.7" cy="413.3" r="5.5"/><path class="cls-4" d="M1530.9,411.6c-.8-.4-.6-1.5.7-2a3,3,0,0,1,3.9,1.2c.4,1-.8,2.3-2.3.8C1532.6,410.9,1531.6,411.9,1530.9,411.6Z"/><circle class="cls-2" cx="1546.7" cy="408.1" r="5.5"/><path class="cls-4" d="M1545,406.4c-.8-.4-.6-1.5.7-2a3,3,0,0,1,3.9,1.2c.4,1-.8,2.3-2.3.8C1546.6,405.7,1545.6,406.7,1545,406.4Z"/><circle class="cls-2" cx="1560.8" cy="402.9" r="5.5"/><path class="cls-4" d="M1559,401.2c-.8-.4-.6-1.5.7-2a3,3,0,0,1,3.9,1.2c.4,1-.8,2.3-2.3.8C1560.7,400.5,1559.7,401.5,1559,401.2Z"/><circle class="cls-2" cx="1574.9" cy="397.7" r="5.5"/><path class="cls-4" d="M1573.1,396c-.8-.4-.6-1.5.7-2a3,3,0,0,1,3.9,1.2c.4,1-.8,2.3-2.3.8C1574.8,395.3,1573.8,396.3,1573.1,396Z"/><circle class="cls-2" cx="1588.9" cy="392.5" r="5.5"/><path class="cls-4" d="M1587.2,390.8c-.8-.4-.6-1.5.7-2a3,3,0,0,1,3.9,1.2c.4,1-.8,2.3-2.3.8C1588.8,390.1,1587.8,391.1,1587.2,390.8Z"/><circle class="cls-2" cx="1603" cy="387.3" r="5.5"/><path class="cls-4" d="M1601.2,385.6c-.8-.4-.6-1.5.7-2a3,3,0,0,1,3.9,1.2c.4,1-.8,2.3-2.3.8C1602.9,384.9,1601.9,385.9,1601.2,385.6Z"/><circle class="cls-2" cx="1618" cy="381.7" r="5.5"/><path class="cls-4" d="M1616.2,380c-.8-.4-.6-1.5.7-2a3,3,0,0,1,3.9,1.2c.4,1-.8,2.3-2.3.8C1617.9,379.3,1616.9,380.3,1616.2,380Z"/><circle class="cls-2" cx="1632.1" cy="376.5" r="5.5"/><path class="cls-4" d="M1630.3,374.8c-.8-.4-.6-1.5.7-2a3,3,0,0,1,3.9,1.2c.4,1-.8,2.3-2.3.8C1632,374.1,1631,375.1,1630.3,374.8Z"/><circle class="cls-2" cx="1646.1" cy="371.3" r="5.5"/><path class="cls-4" d="M1644.4,369.6c-.8-.4-.6-1.5.7-2a3,3,0,0,1,3.9,1.2c.4,1-.8,2.3-2.3.8C1646,368.9,1645,369.9,1644.4,369.6Z"/><circle class="cls-2" cx="1660.2" cy="366.1" r="5.5"/><path class="cls-4" d="M1658.4,364.4c-.8-.4-.6-1.5.7-2a3,3,0,0,1,3.9,1.2c.4,1-.8,2.3-2.3.8C1660.1,363.7,1659.1,364.7,1658.4,364.4Z"/><circle class="cls-2" cx="1674.3" cy="360.9" r="5.5"/><path class="cls-4" d="M1672.5,359.2c-.8-.4-.6-1.5.7-2a3,3,0,0,1,3.9,1.2c.4,1-.8,2.3-2.3.8C1674.2,358.5,1673.2,359.5,1672.5,359.2Z"/><circle class="cls-2" cx="1688.3" cy="355.7" r="5.5"/><path class="cls-4" d="M1686.6,354c-.8-.4-.6-1.5.7-2a3,3,0,0,1,3.9,1.2c.4,1-.8,2.3-2.3.8C1688.2,353.3,1687.2,354.3,1686.6,354Z"/><circle class="cls-2" cx="1448.3" cy="444.6" r="5.5"/><path class="cls-4" d="M1446.5,442.9c-.8-.4-.6-1.5.7-2a3,3,0,0,1,3.9,1.2c.4,1-.8,2.3-2.3.8C1448.2,442.2,1447.2,443.2,1446.5,442.9Z"/><circle class="cls-2" cx="1462.3" cy="439.4" r="5.5"/><path class="cls-4" d="M1460.6,437.7c-.8-.4-.6-1.5.7-2a3,3,0,0,1,3.9,1.2c.4,1-.8,2.3-2.3.8C1462.2,437,1461.2,438,1460.6,437.7Z"/><circle class="cls-2" cx="1476.4" cy="434.2" r="5.5"/><path class="cls-4" d="M1474.6,432.5c-.8-.4-.6-1.5.7-2a3,3,0,0,1,3.9,1.2c.4,1-.8,2.3-2.3.8C1476.3,431.8,1475.3,432.8,1474.6,432.5Z"/><circle class="cls-2" cx="1490.5" cy="428.9" r="5.5"/><path class="cls-4" d="M1488.7,427.2c-.8-.4-.6-1.5.7-2a3,3,0,0,1,3.9,1.2c.4,1-.8,2.3-2.3.8C1490.4,426.6,1489.4,427.6,1488.7,427.2Z"/><circle class="cls-2" cx="1504.5" cy="423.7" r="5.5"/><path class="cls-4" d="M1502.8,422c-.8-.4-.6-1.5.7-2a3,3,0,0,1,3.9,1.2c.4,1-.8,2.3-2.3.8C1504.4,421.4,1503.4,422.3,1502.8,422Z"/><circle class="cls-2" cx="1518.6" cy="418.5" r="5.5"/><path class="cls-4" d="M1516.8,416.8c-.8-.4-.6-1.5.7-2a3,3,0,0,1,3.9,1.2c.4,1-.8,2.3-2.3.8C1518.5,416.1,1517.5,417.1,1516.8,416.8Z"/><circle class="cls-2" cx="1702.4" cy="350.5" r="5.5"/><path class="cls-4" d="M1700.6,348.8c-.8-.4-.6-1.5.7-2a3,3,0,0,1,3.9,1.2c.4,1-.8,2.3-2.3.8C1702.3,348.1,1701.3,349.1,1700.6,348.8Z"/><circle class="cls-2" cx="1716.5" cy="345.3" r="5.5"/><path class="cls-4" d="M1714.7,343.6c-.8-.4-.6-1.5.7-2a3,3,0,0,1,3.9,1.2c.4,1-.8,2.3-2.3.8C1716.4,342.9,1715.4,343.9,1714.7,343.6Z"/><circle class="cls-2" cx="1730.5" cy="340.1" r="5.5"/><path class="cls-4" d="M1728.8,338.4c-.8-.4-.6-1.5.7-2a3,3,0,0,1,3.9,1.2c.4,1-.8,2.3-2.3.8C1730.4,337.7,1729.4,338.7,1728.8,338.4Z"/><circle class="cls-2" cx="1744.6" cy="334.8" r="5.5"/><path class="cls-4" d="M1742.8,333.2c-.8-.4-.6-1.5.7-2a3,3,0,0,1,3.9,1.2c.4,1-.8,2.3-2.3.8C1744.5,332.5,1743.5,333.5,1742.8,333.2Z"/><circle class="cls-2" cx="1758.7" cy="329.6" r="5.5"/><path class="cls-4" d="M1756.9,327.9c-.8-.4-.6-1.5.7-2a3,3,0,0,1,3.9,1.2c.4,1-.8,2.3-2.3.8C1758.6,327.3,1757.6,328.2,1756.9,327.9Z"/><circle class="cls-2" cx="1529.5" cy="115.8" r="5.5"/><path class="cls-4" d="M1529.2,113.3c-.4-.8.5-1.6,1.8-1.1a2.93,2.93,0,0,1,2.2,3.4c-.4,1-2.1,1.2-2.2-.9C1530.9,113.9,1529.5,114,1529.2,113.3Z"/><circle class="cls-2" cx="1543.6" cy="120.8" r="5.5"/><path class="cls-4" d="M1543.4,118.4c-.4-.8.5-1.6,1.8-1.1a2.93,2.93,0,0,1,2.2,3.4c-.4,1-2.1,1.2-2.2-.9C1545.1,118.9,1543.7,119,1543.4,118.4Z"/><circle class="cls-2" cx="1557.8" cy="125.8" r="5.5"/><path class="cls-4" d="M1557.5,123.4c-.4-.8.5-1.6,1.8-1.1a2.93,2.93,0,0,1,2.2,3.4c-.4,1-2.1,1.2-2.2-.9C1559.2,123.9,1557.8,124.1,1557.5,123.4Z"/><circle class="cls-2" cx="1571.9" cy="130.8" r="5.5"/><path class="cls-4" d="M1571.6,128.4c-.4-.8.5-1.6,1.8-1.1a2.93,2.93,0,0,1,2.2,3.4c-.4,1-2.1,1.2-2.2-.9C1573.3,129,1571.9,129.1,1571.6,128.4Z"/><circle class="cls-2" cx="1586" cy="135.9" r="5.5"/><path class="cls-4" d="M1585.8,133.4c-.4-.8.5-1.6,1.8-1.1a2.93,2.93,0,0,1,2.2,3.4c-.4,1-2.1,1.2-2.2-.9C1587.5,134,1586.1,134.1,1585.8,133.4Z"/><circle class="cls-2" cx="1600.2" cy="140.9" r="5.5"/><path class="cls-4" d="M1599.9,138.5c-.4-.8.5-1.6,1.8-1.1a2.93,2.93,0,0,1,2.2,3.4c-.4,1-2.1,1.2-2.2-.9C1601.6,139,1600.2,139.1,1599.9,138.5Z"/><circle class="cls-2" cx="1615.2" cy="146.3" r="5.5"/><path class="cls-4" d="M1615,143.8c-.4-.8.5-1.6,1.8-1.1a2.93,2.93,0,0,1,2.2,3.4c-.4,1-2.1,1.2-2.2-.9C1616.7,144.4,1615.3,144.5,1615,143.8Z"/><circle class="cls-2" cx="1629.4" cy="151.3" r="5.5"/><path class="cls-4" d="M1629.1,148.8c-.4-.8.5-1.6,1.8-1.1a2.93,2.93,0,0,1,2.2,3.4c-.4,1-2.1,1.2-2.2-.9C1630.8,149.4,1629.4,149.5,1629.1,148.8Z"/><circle class="cls-2" cx="1643.5" cy="156.3" r="5.5"/><path class="cls-4" d="M1643.2,153.9c-.4-.8.5-1.6,1.8-1.1a2.93,2.93,0,0,1,2.2,3.4c-.4,1-2.1,1.2-2.2-.9C1645,154.4,1643.6,154.5,1643.2,153.9Z"/><circle class="cls-2" cx="1657.6" cy="161.3" r="5.5"/><path class="cls-4" d="M1657.4,158.9c-.4-.8.5-1.6,1.8-1.1a2.93,2.93,0,0,1,2.2,3.4c-.4,1-2.1,1.2-2.2-.9C1659.1,159.4,1657.7,159.6,1657.4,158.9Z"/><circle class="cls-2" cx="1671.8" cy="166.4" r="5.5"/><path class="cls-4" d="M1671.5,163.9c-.4-.8.5-1.6,1.8-1.1a2.93,2.93,0,0,1,2.2,3.4c-.4,1-2.1,1.2-2.2-.9C1673.2,164.5,1671.8,164.6,1671.5,163.9Z"/><circle class="cls-2" cx="1685.9" cy="171.4" r="5.5"/><path class="cls-4" d="M1685.6,168.9c-.4-.8.5-1.6,1.8-1.1a2.93,2.93,0,0,1,2.2,3.4c-.4,1-2.1,1.2-2.2-.9C1687.4,169.5,1686,169.6,1685.6,168.9Z"/><circle class="cls-2" cx="1444.7" cy="85.6" r="5.5"/><path class="cls-4" d="M1444.4,83.2c-.4-.8.5-1.6,1.8-1.1a2.93,2.93,0,0,1,2.2,3.4c-.4,1-2.1,1.2-2.2-.9C1446.1,83.7,1444.7,83.9,1444.4,83.2Z"/><circle class="cls-2" cx="1458.8" cy="90.6" r="5.5"/><path class="cls-4" d="M1458.6,88.2c-.4-.8.5-1.6,1.8-1.1a2.93,2.93,0,0,1,2.2,3.4c-.4,1-2.1,1.2-2.2-.9C1460.3,88.8,1458.9,88.9,1458.6,88.2Z"/><circle class="cls-2" cx="1473" cy="95.7" r="5.5"/><path class="cls-4" d="M1472.7,93.2c-.4-.8.5-1.6,1.8-1.1a2.93,2.93,0,0,1,2.2,3.4c-.4,1-2.1,1.2-2.2-.9C1474.4,93.8,1473,93.9,1472.7,93.2Z"/><circle class="cls-2" cx="1487.1" cy="100.7" r="5.5"/><path class="cls-4" d="M1486.8,98.3c-.4-.8.5-1.6,1.8-1.1a2.93,2.93,0,0,1,2.2,3.4c-.4,1-2.1,1.2-2.2-.9C1488.5,98.8,1487.1,98.9,1486.8,98.3Z"/><circle class="cls-2" cx="1501.2" cy="105.7" r="5.5"/><path class="cls-4" d="M1501,103.3c-.4-.8.5-1.6,1.8-1.1a2.93,2.93,0,0,1,2.2,3.4c-.4,1-2.1,1.2-2.2-.9C1502.7,103.8,1501.3,104,1501,103.3Z"/><circle class="cls-2" cx="1515.4" cy="110.7" r="5.5"/><path class="cls-5" d="M1515.1,108.3c-.4-.8.5-1.6,1.8-1.1a2.93,2.93,0,0,1,2.2,3.4c-.4,1-2.1,1.2-2.2-.9C1516.8,108.9,1515.4,109,1515.1,108.3Z"/><circle class="cls-2" cx="1700" cy="176.4" r="5.5"/><path class="cls-4" d="M1699.8,174c-.4-.8.5-1.6,1.8-1.1a2.93,2.93,0,0,1,2.2,3.4c-.4,1-2.1,1.2-2.2-.9C1701.5,174.5,1700.1,174.6,1699.8,174Z"/><circle class="cls-2" cx="1714.2" cy="181.4" r="5.5"/><path class="cls-4" d="M1713.9,179c-.4-.8.5-1.6,1.8-1.1a2.93,2.93,0,0,1,2.2,3.4c-.4,1-2.1,1.2-2.2-.9C1715.6,179.5,1714.2,179.7,1713.9,179Z"/><circle class="cls-2" cx="1728.3" cy="186.5" r="5.5"/><path class="cls-4" d="M1728,184c-.4-.8.5-1.6,1.8-1.1a2.93,2.93,0,0,1,2.2,3.4c-.4,1-2.1,1.2-2.2-.9C1729.8,184.6,1728.4,184.7,1728,184Z"/><circle class="cls-2" cx="1742.4" cy="191.5" r="5.5"/><path class="cls-4" d="M1742.2,189c-.4-.8.5-1.6,1.8-1.1a2.93,2.93,0,0,1,2.2,3.4c-.4,1-2.1,1.2-2.2-.9C1743.9,189.6,1742.5,189.7,1742.2,189Z"/><circle class="cls-2" cx="1756.6" cy="196.5" r="5.5"/><path class="cls-4" d="M1756.3,194.1c-.4-.8.5-1.6,1.8-1.1a2.93,2.93,0,0,1,2.2,3.4c-.4,1-2.1,1.2-2.2-.9C1758,194.6,1756.6,194.7,1756.3,194.1Z"/><circle class="cls-2" cx="1768.9" cy="203.6" r="5.5"/><path class="cls-4" d="M1768.7,201.1c-.4-.8.5-1.6,1.8-1.1a2.93,2.93,0,0,1,2.2,3.4c-.4,1-2.1,1.2-2.2-.9C1770.4,201.7,1769,201.8,1768.7,201.1Z"/><circle class="cls-2" cx="1770.9" cy="322.6" r="5.5"/><path class="cls-4" d="M1769.2,320.9c-.8-.4-.6-1.5.7-2a3,3,0,0,1,3.9,1.2c.4,1-.8,2.3-2.3.8C1770.8,320.2,1769.8,321.2,1769.2,320.9Z"/><circle class="cls-2" cx="1781.9" cy="313.6" r="5.5"/><path class="cls-4" d="M1780.2,311.9c-.8-.4-.6-1.5.7-2a3,3,0,0,1,3.9,1.2c.4,1-.8,2.3-2.3.8C1781.8,311.2,1780.8,312.2,1780.2,311.9Z"/><circle class="cls-2" cx="1789.9" cy="301.6" r="5.5"/><path class="cls-4" d="M1788.2,299.9c-.8-.4-.6-1.5.7-2a3,3,0,0,1,3.9,1.2c.4,1-.8,2.3-2.3.8C1789.8,299.2,1788.8,300.2,1788.2,299.9Z"/><circle class="cls-2" cx="1795.9" cy="288.6" r="5.5"/><path class="cls-4" d="M1794.2,286.9c-.8-.4-.6-1.5.7-2a3,3,0,0,1,3.9,1.2c.4,1-.8,2.3-2.3.8C1795.8,286.2,1794.9,287.2,1794.2,286.9Z"/><circle class="cls-2" cx="1798.9" cy="274.6" r="5.5"/><path class="cls-4" d="M1797.2,272.9c-.8-.4-.6-1.5.7-2a3,3,0,0,1,3.9,1.2c.4,1-.8,2.3-2.3.8C1798.8,272.2,1797.9,273.2,1797.2,272.9Z"/><circle class="cls-2" cx="1799.9" cy="260.6" r="5.5"/><path class="cls-4" d="M1798.2,258.9c-.8-.4-.6-1.5.7-2a3,3,0,0,1,3.9,1.2c.4,1-.8,2.3-2.3.8C1799.8,258.2,1798.9,259.2,1798.2,258.9Z"/><circle class="cls-2" cx="1797.9" cy="246.6" r="5.5"/><path class="cls-4" d="M1796.2,244.9c-.8-.4-.6-1.5.7-2a3,3,0,0,1,3.9,1.2c.4,1-.8,2.3-2.3.8C1797.8,244.2,1796.9,245.2,1796.2,244.9Z"/><circle class="cls-2" cx="1793.9" cy="233.6" r="5.5"/><path class="cls-4" d="M1792.2,231.9c-.8-.4-.6-1.5.7-2a3,3,0,0,1,3.9,1.2c.4,1-.8,2.3-2.3.8C1793.8,231.2,1792.8,232.2,1792.2,231.9Z"/><circle class="cls-2" cx="1787.9" cy="221.6" r="5.5"/><path class="cls-4" d="M1786.2,219.9c-.8-.4-.6-1.5.7-2a3,3,0,0,1,3.9,1.2c.4,1-.8,2.3-2.3.8C1787.8,219.2,1786.8,220.2,1786.2,219.9Z"/><circle class="cls-2" cx="1779.9" cy="211.6" r="5.5"/><path class="cls-4" d="M1778.2,209.9c-.8-.4-.6-1.5.7-2a3,3,0,0,1,3.9,1.2c.4,1-.8,2.3-2.3.8C1779.8,209.2,1778.8,210.2,1778.2,209.9Z"/><circle class="cls-2" cx="1347.9" cy="415.8" r="5.5"/><path class="cls-4" d="M1349.7,414.1c.8-.4.6-1.5-.7-2a3,3,0,0,0-3.9,1.2c-.4,1,.9,2.3,2.3.7C1348,413.4,1349,414.4,1349.7,414.1Z"/><circle class="cls-2" cx="1333.7" cy="410.6" r="5.5"/><path class="cls-4" d="M1335.5,408.9c.8-.4.6-1.5-.7-2a3,3,0,0,0-3.9,1.2c-.4,1,.9,2.3,2.3.7C1333.8,408.2,1334.8,409.2,1335.5,408.9Z"/><circle class="cls-2" cx="1319.5" cy="405.5" r="5.5"/><path class="cls-4" d="M1321.3,403.8c.8-.4.6-1.5-.7-2a3,3,0,0,0-3.9,1.2c-.4,1,.9,2.3,2.3.7C1319.6,403.1,1320.6,404.1,1321.3,403.8Z"/><circle class="cls-2" cx="1305.4" cy="400.3" r="5.5"/><path class="cls-4" d="M1307.1,398.6c.8-.4.6-1.5-.7-2a3,3,0,0,0-3.9,1.2c-.4,1,.9,2.3,2.3.7C1305.4,397.9,1306.4,398.9,1307.1,398.6Z"/><circle class="cls-2" cx="1291.2" cy="395.2" r="5.5"/><path class="cls-4" d="M1292.9,393.5c.8-.4.6-1.5-.7-2a3,3,0,0,0-3.9,1.2c-.4,1,.9,2.3,2.3.7C1291.3,392.8,1292.3,393.8,1292.9,393.5Z"/><circle class="cls-2" cx="1277" cy="390.1" r="5.5"/><path class="cls-4" d="M1278.8,388.3c.8-.4.6-1.5-.7-2a3,3,0,0,0-3.9,1.2c-.4,1,.9,2.3,2.3.7C1277.1,387.7,1278.1,388.6,1278.8,388.3Z"/><circle class="cls-2" cx="1261.9" cy="384.6" r="5.5"/><path class="cls-4" d="M1263.6,382.9c.8-.4.6-1.5-.7-2a3,3,0,0,0-3.9,1.2c-.4,1,.9,2.3,2.3.7C1262,382.2,1263,383.2,1263.6,382.9Z"/><circle class="cls-2" cx="1247.7" cy="379.4" r="5.5"/><path class="cls-4" d="M1249.5,377.7c.8-.4.6-1.5-.7-2a3,3,0,0,0-3.9,1.2c-.4,1,.9,2.3,2.3.7C1247.8,377,1248.8,378,1249.5,377.7Z"/><circle class="cls-2" cx="1233.5" cy="374.3" r="5.5"/><path class="cls-4" d="M1235.3,372.6c.8-.4.6-1.5-.7-2a3,3,0,0,0-3.9,1.2c-.4,1,.9,2.3,2.3.7C1233.6,371.9,1234.6,372.9,1235.3,372.6Z"/><circle class="cls-2" cx="1219.3" cy="369.1" r="5.5"/><path class="cls-4" d="M1221.1,367.4c.8-.4.6-1.5-.7-2a3,3,0,0,0-3.9,1.2c-.4,1,.9,2.3,2.3.7C1219.4,366.7,1220.4,367.7,1221.1,367.4Z"/><circle class="cls-2" cx="1205.1" cy="364" r="5.5"/><path class="cls-4" d="M1206.9,362.3c.8-.4.6-1.5-.7-2a3,3,0,0,0-3.9,1.2c-.4,1,.9,2.3,2.3.7C1205.2,361.6,1206.2,362.6,1206.9,362.3Z"/><circle class="cls-2" cx="1191" cy="358.9" r="5.5"/><path class="cls-4" d="M1192.7,357.1c.8-.4.6-1.5-.7-2a3,3,0,0,0-3.9,1.2c-.4,1,.9,2.3,2.3.7C1191,356.5,1192,357.4,1192.7,357.1Z"/><circle class="cls-2" cx="1433" cy="446.6" r="5.5"/><path class="cls-4" d="M1434.8,444.9c.8-.4.6-1.5-.7-2a3,3,0,0,0-3.9,1.2c-.4,1,.9,2.3,2.3.7C1433.1,444.2,1434.1,445.2,1434.8,444.9Z"/><circle class="cls-2" cx="1418.8" cy="441.5" r="5.5"/><path class="cls-4" d="M1420.6,439.8c.8-.4.6-1.5-.7-2a3,3,0,0,0-3.9,1.2c-.4,1,.9,2.3,2.3.7C1418.9,439.1,1419.9,440.1,1420.6,439.8Z"/><circle class="cls-2" cx="1404.6" cy="436.3" r="5.5"/><path class="cls-4" d="M1406.4,434.6c.8-.4.6-1.5-.7-2a3,3,0,0,0-3.9,1.2c-.4,1,.9,2.3,2.3.7C1404.7,433.9,1405.7,434.9,1406.4,434.6Z"/><circle class="cls-2" cx="1390.5" cy="431.2" r="5.5"/><path class="cls-4" d="M1392.2,429.5c.8-.4.6-1.5-.7-2a3,3,0,0,0-3.9,1.2c-.4,1,.9,2.3,2.3.7C1390.5,428.8,1391.5,429.8,1392.2,429.5Z"/><circle class="cls-2" cx="1376.3" cy="426.1" r="5.5"/><path class="cls-4" d="M1378,424.3c.8-.4.6-1.5-.7-2a3,3,0,0,0-3.9,1.2c-.4,1,.9,2.3,2.3.7C1376.4,423.7,1377.4,424.7,1378,424.3Z"/><circle class="cls-2" cx="1362.1" cy="420.9" r="5.5"/><path class="cls-4" d="M1363.9,419.2c.8-.4.6-1.5-.7-2a3,3,0,0,0-3.9,1.2c-.4,1,.9,2.3,2.3.7C1362.2,418.5,1363.2,419.5,1363.9,419.2Z"/><circle class="cls-2" cx="1176.8" cy="353.7" r="5.5"/><path class="cls-4" d="M1178.5,352c.8-.4.6-1.5-.7-2a3,3,0,0,0-3.9,1.2c-.4,1,.9,2.3,2.3.7C1176.9,351.3,1177.9,352.3,1178.5,352Z"/><circle class="cls-2" cx="1162.6" cy="348.6" r="5.5"/><path class="cls-4" d="M1164.4,346.9c.8-.4.6-1.5-.7-2a3,3,0,0,0-3.9,1.2c-.4,1,.9,2.3,2.3.7C1162.7,346.2,1163.7,347.2,1164.4,346.9Z"/><circle class="cls-2" cx="1148.4" cy="343.4" r="5.5"/><path class="cls-4" d="M1150.2,341.7c.8-.4.6-1.5-.7-2a3,3,0,0,0-3.9,1.2c-.4,1,.9,2.3,2.3.7C1148.5,341,1149.5,342,1150.2,341.7Z"/><circle class="cls-2" cx="1134.2" cy="338.3" r="5.5"/><path class="cls-4" d="M1136,336.6c.8-.4.6-1.5-.7-2a3,3,0,0,0-3.9,1.2c-.4,1,.9,2.3,2.3.7C1134.3,335.9,1135.3,336.9,1136,336.6Z"/><circle class="cls-2" cx="1120" cy="333.1" r="5.5"/><path class="cls-4" d="M1121.8,331.4c.8-.4.6-1.5-.7-2a3,3,0,0,0-3.9,1.2c-.4,1,.9,2.3,2.3.7C1120.1,330.7,1121.1,331.7,1121.8,331.4Z"/><circle class="cls-2" cx="1342.9" cy="116" r="5.5"/><path class="cls-4" d="M1343.1,113.5c.4-.8-.5-1.6-1.8-1.1-2.1.8-2.5,2.6-2.2,3.5s2.1,1.2,2.2-.9C1341.4,114.1,1342.8,114.2,1343.1,113.5Z"/><circle class="cls-2" cx="1328.7" cy="121.2" r="5.5"/><path class="cls-4" d="M1329,118.8c.4-.8-.5-1.6-1.8-1.1-2.1.8-2.5,2.6-2.2,3.5s2.1,1.2,2.2-.9C1327.3,119.3,1328.7,119.5,1329,118.8Z"/><circle class="cls-2" cx="1314.6" cy="126.5" r="5.5"/><path class="cls-4" d="M1314.8,124c.4-.8-.5-1.6-1.8-1.1-2.1.8-2.5,2.6-2.2,3.5s2.1,1.2,2.2-.9C1313.1,124.6,1314.5,124.7,1314.8,124Z"/><circle class="cls-2" cx="1300.4" cy="131.7" r="5.5"/><path class="cls-4" d="M1300.7,129.3c.4-.8-.5-1.6-1.8-1.1-2.1.8-2.5,2.6-2.2,3.5s2.1,1.2,2.2-.9C1299,129.8,1300.4,129.9,1300.7,129.3Z"/><circle class="cls-2" cx="1286.3" cy="137" r="5.5"/><path class="cls-4" d="M1286.5,134.5c.4-.8-.5-1.6-1.8-1.1-2.1.8-2.5,2.6-2.2,3.5s2.1,1.2,2.2-.9C1284.8,135.1,1286.2,135.2,1286.5,134.5Z"/><circle class="cls-2" cx="1272.2" cy="142.2" r="5.5"/><path class="cls-4" d="M1272.4,139.7c.4-.8-.5-1.6-1.8-1.1-2.1.8-2.5,2.6-2.2,3.5s2.1,1.2,2.2-.9C1270.7,140.3,1272.1,140.4,1272.4,139.7Z"/><circle class="cls-2" cx="1257.1" cy="147.8" r="5.5"/><path class="cls-4" d="M1257.3,145.3c.4-.8-.5-1.6-1.8-1.1-2.1.8-2.5,2.6-2.2,3.5s2.1,1.2,2.2-.9C1255.6,145.9,1257,146,1257.3,145.3Z"/><circle class="cls-2" cx="1242.9" cy="153" r="5.5"/><path class="cls-4" d="M1243.2,150.6c.4-.8-.5-1.6-1.8-1.1-2.1.8-2.5,2.6-2.2,3.5s2.1,1.2,2.2-.9C1241.4,151.1,1242.8,151.3,1243.2,150.6Z"/><circle class="cls-2" cx="1228.8" cy="158.3" r="5.5"/><path class="cls-4" d="M1229,155.8c.4-.8-.5-1.6-1.8-1.1-2.1.8-2.5,2.6-2.2,3.5s2.1,1.2,2.2-.9C1227.3,156.4,1228.7,156.5,1229,155.8Z"/><circle class="cls-2" cx="1214.6" cy="163.5" r="5.5"/><path class="cls-4" d="M1214.9,161.1c.4-.8-.5-1.6-1.8-1.1-2.1.8-2.5,2.6-2.2,3.5s2.1,1.2,2.2-.9C1213.1,161.6,1214.5,161.7,1214.9,161.1Z"/><circle class="cls-2" cx="1200.5" cy="168.8" r="5.5"/><path class="cls-4" d="M1200.7,166.3c.4-.8-.5-1.6-1.8-1.1-2.1.8-2.5,2.6-2.2,3.5s2.1,1.2,2.2-.9C1199,166.9,1200.4,167,1200.7,166.3Z"/><circle class="cls-2" cx="1186.3" cy="174" r="5.5"/><path class="cls-4" d="M1186.6,171.5c.4-.8-.5-1.6-1.8-1.1-2.1.8-2.5,2.6-2.2,3.5s2.1,1.2,2.2-.9C1184.8,172.1,1186.3,172.2,1186.6,171.5Z"/><circle class="cls-2" cx="1427.8" cy="84.5" r="5.5"/><path class="cls-4" d="M1428,82.1c.4-.8-.5-1.6-1.8-1.1-2.1.8-2.5,2.6-2.2,3.5s2.1,1.2,2.2-.9C1426.3,82.7,1427.7,82.8,1428,82.1Z"/><circle class="cls-2" cx="1413.6" cy="89.8" r="5.5"/><path class="cls-4" d="M1413.9,87.3c.4-.8-.5-1.6-1.8-1.1-2.1.8-2.5,2.6-2.2,3.5s2.1,1.2,2.2-.9C1412.1,87.9,1413.5,88,1413.9,87.3Z"/><circle class="cls-2" cx="1399.5" cy="95" r="5.5"/><path class="cls-4" d="M1399.7,92.6c.4-.8-.5-1.6-1.8-1.1-2.1.8-2.5,2.6-2.2,3.5s2.1,1.2,2.2-.9C1398,93.1,1399.4,93.2,1399.7,92.6Z"/><circle class="cls-2" cx="1385.3" cy="100.3" r="5.5"/><path class="cls-4" d="M1385.6,97.8c.4-.8-.5-1.6-1.8-1.1-2.1.8-2.5,2.6-2.2,3.5s2.1,1.2,2.2-.9C1383.8,98.4,1385.3,98.5,1385.6,97.8Z"/><circle class="cls-2" cx="1371.2" cy="105.5" r="5.5"/><path class="cls-4" d="M1371.4,103.1c.4-.8-.5-1.6-1.8-1.1-2.1.8-2.5,2.6-2.2,3.5s2.1,1.2,2.2-.9C1369.7,103.6,1371.1,103.7,1371.4,103.1Z"/><circle class="cls-2" cx="1357" cy="110.7" r="5.5"/><path class="cls-4" d="M1357.3,108.3c.4-.8-.5-1.6-1.8-1.1-2.1.8-2.5,2.6-2.2,3.5s2.1,1.2,2.2-.9C1355.6,108.9,1357,109,1357.3,108.3Z"/><circle class="cls-2" cx="1172.2" cy="179.2" r="5.5"/><path class="cls-4" d="M1172.4,176.8c.4-.8-.5-1.6-1.8-1.1-2.1.8-2.5,2.6-2.2,3.5s2.1,1.2,2.2-.9C1170.7,177.4,1172.1,177.5,1172.4,176.8Z"/><circle class="cls-2" cx="1158" cy="184.5" r="5.5"/><path class="cls-4" d="M1158.3,182c.4-.8-.5-1.6-1.8-1.1-2.1.8-2.5,2.6-2.2,3.5s2.1,1.2,2.2-.9C1156.6,182.6,1158,182.7,1158.3,182Z"/><circle class="cls-2" cx="1143.9" cy="189.7" r="5.5"/><path class="cls-4" d="M1144.1,187.3c.4-.8-.5-1.6-1.8-1.1-2.1.8-2.5,2.6-2.2,3.5s2.1,1.2,2.2-.9C1142.4,187.8,1143.8,187.9,1144.1,187.3Z"/><circle class="cls-2" cx="1129.7" cy="195" r="5.5"/><path class="cls-4" d="M1130,192.5c.4-.8-.5-1.6-1.8-1.1-2.1.8-2.5,2.6-2.2,3.5s2.1,1.2,2.2-.9C1128.3,193.1,1129.7,193.2,1130,192.5Z"/><circle class="cls-2" cx="1115.6" cy="200.2" r="5.5"/><path class="cls-4" d="M1115.8,197.8c.4-.8-.5-1.6-1.8-1.1-2.1.8-2.5,2.6-2.2,3.5s2.1,1.2,2.2-.9C1114.1,198.3,1115.5,198.4,1115.8,197.8Z"/><circle class="cls-2" cx="1103.3" cy="208.5" r="5.5"/><path class="cls-4" d="M1103.5,206c.4-.8-.5-1.6-1.8-1.1-2.1.8-2.5,2.6-2.2,3.5s2.1,1.2,2.2-.9C1101.8,206.6,1103.2,206.7,1103.5,206Z"/><circle class="cls-2" cx="1106.7" cy="326.1" r="5.5"/><path class="cls-4" d="M1108.4,324.4c.8-.4.6-1.5-.7-2a3,3,0,0,0-3.9,1.2c-.4,1,.9,2.3,2.3.7C1106.7,323.7,1107.7,324.7,1108.4,324.4Z"/><circle class="cls-2" cx="1095.5" cy="317.2" r="5.5"/><path class="cls-4" d="M1097.3,315.4c.8-.4.6-1.5-.7-2a3,3,0,0,0-3.9,1.2c-.4,1,.9,2.3,2.3.7C1095.6,314.8,1096.6,315.7,1097.3,315.4Z"/><circle class="cls-2" cx="1087.4" cy="307.1" r="5.5"/><path class="cls-4" d="M1089.2,305.4c.8-.4.6-1.5-.7-2a3,3,0,0,0-3.9,1.2c-.4,1,.9,2.3,2.3.7C1087.5,304.7,1088.5,305.7,1089.2,305.4Z"/><circle class="cls-2" cx="1078.3" cy="283.1" r="5.5"/><path class="cls-4" d="M1080,281.4c.8-.4.6-1.5-.7-2a3,3,0,0,0-3.9,1.2c-.4,1,.9,2.3,2.3.7C1078.4,280.7,1079.4,281.7,1080,281.4Z"/><circle class="cls-2" cx="1076.2" cy="270" r="5.5"/><path class="cls-4" d="M1077.9,268.3c.8-.4.6-1.5-.7-2a3,3,0,0,0-3.9,1.2c-.4,1,.9,2.3,2.3.7C1076.2,267.6,1077.2,268.6,1077.9,268.3Z"/><circle class="cls-2" cx="1077.1" cy="256" r="5.5"/><path class="cls-4" d="M1078.8,254.2c.8-.4.6-1.5-.7-2a3,3,0,0,0-3.9,1.2c-.4,1,.9,2.3,2.3.7C1077.1,253.6,1078.1,254.5,1078.8,254.2Z"/><circle class="cls-2" cx="1079" cy="241.9" r="5.5"/><path class="cls-4" d="M1080.7,240.1c.8-.4.6-1.5-.7-2a3,3,0,0,0-3.9,1.2c-.4,1,.9,2.3,2.3.7C1079.1,239.5,1080.1,240.4,1080.7,240.1Z"/><circle class="cls-2" cx="1083.9" cy="229.8" r="5.5"/><path class="cls-4" d="M1085.7,228c.8-.4.6-1.5-.7-2a3,3,0,0,0-3.9,1.2c-.4,1,.9,2.3,2.3.7C1084,227.4,1085,228.3,1085.7,228Z"/><circle class="cls-2" cx="1090.9" cy="218.6" r="5.5"/><path class="cls-4" d="M1092.6,216.9c.8-.4.6-1.5-.7-2a3,3,0,0,0-3.9,1.2c-.4,1,.9,2.3,2.3.7C1091,216.2,1092,217.2,1092.6,216.9Z"/><circle class="cls-2" cx="1081.8" cy="294.5" r="5.5"/><path class="cls-4" d="M1083.6,292.8c.8-.4.6-1.5-.7-2a3,3,0,0,0-3.9,1.2c-.4,1,.9,2.3,2.3.7C1081.9,292.1,1082.9,293.1,1083.6,292.8Z"/><text class="cls-6" transform="translate(1168.16 331.22) scale(0.89 1)">LAS VEGAS</text><text class="cls-7" transform="translate(1342.59 380.91)"><tspan xml:space="preserve">N  E  V  A  D  A</tspan></text><circle class="cls-8" cx="1202.2" cy="145.8" r="36.2"/><circle class="cls-8" cx="1281.4" cy="145.8" r="36.2"/><circle class="cls-8" cx="1360.6" cy="145.8" r="36.2"/><circle class="cls-8" cx="1439.8" cy="145.8" r="36.2"/><circle class="cls-8" cx="1520.4" cy="145.8" r="36.2"/><circle class="cls-8" cx="1599.6" cy="145.8" r="36.2"/><circle class="cls-8" cx="1678.8" cy="145.8" r="36.2"/><text class="cls-9" transform="translate(1183.51 168.99)">L</text><text class="cls-9" transform="translate(1260.55 169.92)">E</text><text class="cls-9" transform="translate(1338.7 168.37)">A</text><text class="cls-9" transform="translate(1419.2 169.07)">V</text><text class="cls-9" transform="translate(1512.56 168.57)">I</text><text class="cls-9" transform="translate(1576.56 170)">N</text><text class="cls-9" transform="translate(1653.83 169.44)">G</text><rect class="cls-10" y="234" width="1035" height="846"/><path class="cls-1" d="M1035,234v846H975.5C833.5,926.5,727,613.3,694.4,234Z"/><path class="cls-1" d="M270.6,234C238.8,603.9,136.7,910.9,0,1068.2V234Z"/><rect class="cls-3" x="420" y="234" width="122" height="846"/><path class="cls-10" d="M473,234c-.8,406.3-15.7,744.7-35.9,846H411.9C391.8,978.7,376.8,640.3,376,234Z"/><path class="cls-10" d="M605,234c-.9,406.3-17.2,744.7-39.2,846H538.3c-22-101.3-38.3-439.7-39.2-846Z"/><rect class="cls-10" x="403" y="919" width="167" height="51"/><rect class="cls-10" x="403" y="790" width="167" height="42"/><rect class="cls-10" x="415" y="663" width="167" height="42"/><rect class="cls-10" x="403.3" y="549.2" width="167" height="27.8"/><rect class="cls-10" x="394.3" y="460.1" width="167" height="27.8"/><rect class="cls-10" x="397.2" y="385" width="167" height="23.6"/><rect class="cls-10" x="403.2" y="327" width="167" height="21.6"/><rect class="cls-10" x="404.9" y="277" width="167" height="13.8"/><rect class="cls-10" x="413.2" y="244" width="146.1" height="9"/><path class="cls-11" d="M1005.7,144.7s49.5,143.1,51.9,267.9c2.6,134.1-45.2,287.2-45.2,287.2s-48.7-157.8-49-290C963.3,291.6,1005.7,144.7,1005.7,144.7Z"/><path class="cls-12" d="M925.6,150.3s42.9-57.2,80.2-58.3c40-1.2,85.5,58.3,85.5,58.3s-47.3,56-86.7,54.4C969.3,203.3,925.6,150.3,925.6,150.3Z"/><path class="cls-12" d="M1002.1,11s22.8,42.4,23.7,79.6c1,39.9-21.3,85.6-21.3,85.6S982.1,129.4,982.2,90C982.2,54.9,1002.1,11,1002.1,11Z"/><path class="cls-13" d="M94.9,516s15.9,60.3,16.1,112.7c.3,56.3-16.1,120.2-16.1,120.2S79.4,682.4,79.8,627C80.2,577.4,94.9,516,94.9,516Z"/><path class="cls-11" d="M98.6,513.9s14.4,3.9,33.5,23.4,22.7,34,22.7,34c13.6-13.3,12-36.9-3.5-52.8S112.2,500.6,98.6,513.9Z"/><path class="cls-13" d="M98.4,508s13.1-8.6,42.8-12.9,44.8.1,44.8.1c-2.4-16.4-23.9-26.9-48.1-23.4S96,491.5,98.4,508Z"/><path class="cls-11" d="M91.3,513.6S76.9,517.5,57.8,537s-22.7,34-22.7,34c-13.6-13.3-12-36.9,3.5-52.8S77.7,500.3,91.3,513.6Z"/><path class="cls-13" d="M92.1,507.6S79,499,49.3,494.7s-44.8.1-44.8.1c2.4-16.4,23.9-26.9,48.1-23.4S94.5,491.2,92.1,507.6Z"/><path class="cls-11" d="M95.1,426.4s12.5,17.7,12.8,33.1c.4,16.6-12.4,35.5-12.4,35.5s-12.2-19.5-12-35.9C83.8,444.6,95.1,426.4,95.1,426.4Z"/><path class="cls-14" d="M299.5,588.9a26.92,26.92,0,0,0-2.7-3.2h5.4A38.24,38.24,0,0,0,299.5,588.9Z"/><path class="cls-14" d="M360.8,600.4a139.67,139.67,0,0,0-24.5-9.5,122.54,122.54,0,0,1-13.5,3.8c-.5,10.4-.7,21-.7,31.8V631h0c0,4.5.1,8.9.2,13.3,1.2,48.3,7.4,92,16.8,125.8a6.58,6.58,0,0,1-4.6,2.3c-10.8,0-19.5-35.8-19.5-79.9,0-18.4,1.5-35.3,4.1-48.8A34.85,34.85,0,0,1,300.5,632c-.1-.1-.2-.2-.2-.3a11.26,11.26,0,0,0,8.5-10.9,11,11,0,0,0-2.5-7.1,11.18,11.18,0,0,0-7.9-4.1h-.8a10.55,10.55,0,0,0-5,1.2,11.28,11.28,0,0,0,5,21.4h.8a34.86,34.86,0,0,1-18.5,11.5,274.66,274.66,0,0,1,4.1,48.8c0,44.1-8.7,79.9-19.5,79.9-2,0-4-1.3-5.8-3.6,9.2-33.6,15.1-76.7,16.3-124.3.1-5.8.2-11.6.2-17.5v-1.1h0c0-10.3-.3-20.5-.7-30.4a109.45,109.45,0,0,1-15.2-4c-1.5.4-3,.9-4.4,1.4l-1.8.6c-.1,0-.1,0-.2.1a8.8,8.8,0,0,1-1.5.5.35.35,0,0,0-.2.1c-.7.2-1.3.5-2,.7-1.7.7-3.5,1.4-5.2,2.1a8.86,8.86,0,0,0-1.7.8c-.2.1-.3.1-.5.2s-.6.3-.9.4a5.94,5.94,0,0,0-.8.4c-.2.1-.5.2-.7.3s-.5.3-.8.4c-.1.1-.2.1-.3.2l-1.8.9-1.8.9c-.6.3-1.2.6-1.7.9-.3.2-.7.3-1,.5-.6.3-1.1.6-1.6.9-.1,0-.2.1-.3.2l-2.1,1.2a23.92,23.92,0,0,0-2.1,1.3c-.7.4-1.3.8-2,1.2h0A21.41,21.41,0,0,0,222,609c-.4.3-.9.6-1.3.9s-.5.3-.8.5l-1,.7a8.65,8.65,0,0,1-1,.7c-.6.5-1.3.9-1.9,1.4a22,22,0,0,0-1.8,1.4c-.6.5-1.3,1-1.9,1.5s-1.3,1-1.9,1.5l-.1.1-1.8,1.5a.1.1,0,0,0-.1.1c-.6.5-1.2,1-1.7,1.5s-1.1.9-1.6,1.4l-.2.2c-.6.5-1.2,1.1-1.7,1.6l-1.8,1.8c-.5.5-1.1,1-1.6,1.6l-2.1,2.1c-.4.4-.8.9-1.3,1.4s-.9,1-1.4,1.6c-.8.9-1.6,1.8-2.3,2.7-.3.3-.6.7-.9,1s-.4.5-.6.8-.7.8-1,1.2l-1.2,1.5h0a5.55,5.55,0,0,1-.6.8l-.3.3a14.63,14.63,0,0,0-.9,1.3c-.5.7-1,1.3-1.5,2s-1,1.4-1.4,2.1c-.4.5-.7,1.1-1.1,1.6a22.63,22.63,0,0,0-1.3,2c-.3.5-.7,1.1-1,1.6-.1.2-.2.3-.3.5-.2.4-.5.8-.7,1.2-.3.6-.7,1.1-1,1.7-.2.4-.4.7-.6,1.1s-.4.7-.6,1.1-.5.9-.7,1.3c-.3.6-.7,1.3-1,1.9h0c-.2.5-.5.9-.7,1.4a17.38,17.38,0,0,1-1,1.9.1.1,0,0,1-.1.1l-.9,1.8c-.2.4-.4.9-.6,1.3-.6,1.2-1.1,2.5-1.7,3.8-.2.5-.4.9-.6,1.4s-.4,1-.6,1.6c-.2.4-.3.8-.5,1.3-.4.9-.7,1.9-1.1,2.8s-.7,1.9-1,2.9c-.2.5-.3,1-.5,1.4a6.89,6.89,0,0,1-.3.8l-.6,2.1c-.3,1-.6,1.9-.8,2.9a6.47,6.47,0,0,1-.4,1.3c-.3,1-.5,2.1-.8,3.1-.2.7-.3,1.5-.5,2.2,0,.1,0,.2-.1.2a15.52,15.52,0,0,0-.4,2.1c-.1.6-.3,1.3-.4,1.9a14.16,14.16,0,0,1-.4,2v.2a7.84,7.84,0,0,0-.2,1.4l-.3,2.1c0,.3-.1.6-.1.9-.1.7-.2,1.5-.3,2.2-.1.5-.1,1-.2,1.5s-.1,1-.2,1.6-.1,1-.2,1.6c0,.3-.1.7-.1,1s-.1.7-.1,1.1-.1,1-.1,1.5c-.1,1.7-.2,3.5-.2,5.3v3.8a137.22,137.22,0,0,0,4.1,33.5,138.75,138.75,0,0,0,54.8,80.1c12.5-5.3,23.9-22.2,33.2-47.3a298.17,298.17,0,0,0,47,3.8,289.19,289.19,0,0,0,47.2-3.8c9.3,25.1,20.8,41.9,33.4,47a138.92,138.92,0,0,0,54.4-79.9,136.62,136.62,0,0,0,4.1-33.5A140.34,140.34,0,0,0,360.8,600.4ZM340.5,847c-5.8,0-11.2,2.8-15.8,7.5h24c1.8-.7,3.5-1.4,5.2-2.1A19.89,19.89,0,0,0,340.5,847Zm-21.3,15c-.1.1-.1.2-.2.3l2.2-.3Z"/><path d="M379.2,838.1c-3.6,2.5-7.3,4.9-11.1,7.1-7.3-11.2-17-18.1-27.8-18.1-15.7,0-29.4,14.8-36.3,36.6-1.8.1-3.6.1-5.4.1q-4.35,0-8.7-.3c-3.5-20.2-14.7-35-27.9-35-10,0-18.9,8.5-24.1,21.4a132.93,132.93,0,0,1-19.6-11.6c12.5-5.3,23.9-22.2,33.2-47.3a298.17,298.17,0,0,0,47,3.8,289.19,289.19,0,0,0,47.2-3.8C355.1,816.2,366.6,833,379.2,838.1Z"/><path class="cls-5" d="M157.4,753.9c-25.7-19.3-41.2-43.9-41.2-70.7,0-22,10.4-42.6,28.4-59.9V627C144.6,674.5,149.4,718.4,157.4,753.9Z"/><path class="cls-5" d="M324.2,572.5c-.1.9-.1,1.8-.2,2.8a34.68,34.68,0,0,0-21.7,10.5h-5.4a34.48,34.48,0,0,0-23.6-10.7c-.1-.8-.1-1.7-.2-2.5,8.4-.7,16.9-1.1,25.6-1.1S315.8,571.8,324.2,572.5Z"/><path class="cls-15" d="M299.5,588.9a26.92,26.92,0,0,0-2.7-3.2h5.4A38.24,38.24,0,0,0,299.5,588.9Z"/><path class="cls-15" d="M437.7,724.8a137.22,137.22,0,0,1-4.1,33.5c-16.7,11.2-37.1,20.4-60,26.7l-2.3.6c-8.2,2.2-16.7,4-25.5,5.5a293.79,293.79,0,0,1-94.2,0c-8.1-1.3-15.9-3-23.5-4.9-.8-.2-1.6-.4-2.3-.6-23.8-6.4-44.9-15.7-62.2-27.3a136.62,136.62,0,0,1-4.1-33.5V721c0-1.8.1-3.5.2-5.3,0-.5.1-1,.1-1.5s.1-.7.1-1.1.1-.7.1-1a10,10,0,0,1,.2-1.6,8.75,8.75,0,0,1,.2-1.6c.1-.5.1-1,.2-1.5.1-.7.2-1.5.3-2.2,0-.3.1-.6.1-.9l.3-2.1a7.84,7.84,0,0,0,.2-1.4v-.2a14.16,14.16,0,0,1,.4-2,12.86,12.86,0,0,1,.4-1.9c.1-.7.3-1.4.4-2.1,0-.1,0-.2.1-.2.2-.7.3-1.5.5-2.2.3-1.1.5-2.1.8-3.1a6.47,6.47,0,0,1,.4-1.3c.3-1,.5-2,.8-2.9l.6-2.1a6.89,6.89,0,0,1,.3-.8c.2-.5.3-1,.5-1.4.3-1,.7-1.9,1-2.9s.7-1.9,1.1-2.8c.2-.4.3-.8.5-1.3s.4-1,.6-1.6.4-.9.6-1.4c.5-1.3,1.1-2.5,1.7-3.8.2-.4.4-.9.6-1.3l.9-1.8a.1.1,0,0,1,.1-.1,17.38,17.38,0,0,1,1-1.9c.2-.5.5-.9.7-1.4h0c.3-.6.7-1.3,1-1.9.2-.4.5-.9.7-1.3s.4-.7.6-1.1.4-.7.6-1.1c.3-.6.7-1.1,1-1.7.2-.4.5-.8.7-1.2.1-.2.2-.3.3-.5.3-.5.7-1.1,1-1.6.4-.7.9-1.3,1.3-2,.4-.5.7-1.1,1.1-1.6.5-.7.9-1.4,1.4-2.1s1-1.4,1.5-2c.3-.4.6-.9.9-1.3l.3-.3a5.55,5.55,0,0,1,.6-.8h0l1.2-1.5c.3-.4.7-.8,1-1.2s.4-.5.6-.8.6-.7.9-1c.8-.9,1.5-1.8,2.3-2.7.5-.5.9-1,1.4-1.6a16.61,16.61,0,0,1,1.3-1.4l2.1-2.1,1.6-1.6,1.8-1.8c.6-.5,1.2-1.1,1.7-1.6l.2-.2a20,20,0,0,1,1.6-1.4c.6-.5,1.2-1,1.7-1.5a.1.1,0,0,0,.1-.1l1.8-1.5.1-.1c.6-.5,1.2-1,1.9-1.5s1.3-1,1.9-1.5,1.2-.9,1.8-1.4,1.3-.9,1.9-1.4a8.65,8.65,0,0,1,1-.7l1-.7a3.51,3.51,0,0,1,.8-.5c.4-.3.9-.6,1.3-.9.6-.4,1.3-.9,1.9-1.3h0c.7-.4,1.3-.8,2-1.2a23.92,23.92,0,0,0,2.1-1.3l2.1-1.2c.1-.1.2-.1.3-.2.5-.3,1.1-.6,1.6-.9a3.13,3.13,0,0,1,1-.5c.6-.3,1.2-.6,1.7-.9l1.8-.9,1.8-.9c.1-.1.2-.1.3-.2.3-.1.5-.3.8-.4s.5-.2.7-.3a5.94,5.94,0,0,0,.8-.4c.3-.1.6-.3.9-.4s.3-.1.5-.2c.6-.3,1.2-.5,1.7-.8,1.7-.7,3.4-1.4,5.2-2.1.7-.2,1.3-.5,2-.7a.35.35,0,0,0,.2-.1,8.8,8.8,0,0,1,1.5-.5c.1,0,.1,0,.2-.1l1.8-.6c1.5-.5,3-1,4.4-1.4a109.45,109.45,0,0,0,15.2,4c.5,9.9.7,20.1.7,30.4h0v1.1c0,5.9-.1,11.7-.2,17.5-1.2,47.6-7.1,90.7-16.3,124.3,1.8,2.3,3.8,3.6,5.8,3.6,10.8,0,19.5-35.8,19.5-79.9,0-18.4-1.5-35.3-4.1-48.8a34.86,34.86,0,0,0,18.5-11.5h-.8a11.28,11.28,0,0,1-5-21.4,10.55,10.55,0,0,1,5-1.2h.8a11.18,11.18,0,0,1,7.9,4.1,11,11,0,0,1,2.5,7.1,11.17,11.17,0,0,1-8.5,10.9c.1.1.1.2.2.3a34.85,34.85,0,0,0,18.6,11.7,274.66,274.66,0,0,0-4.1,48.8c0,44.1,8.7,79.9,19.5,79.9a6.58,6.58,0,0,0,4.6-2.3c-9.4-33.8-15.6-77.5-16.8-125.8-.1-4.4-.2-8.9-.2-13.3h0v-4.5c0-10.8.2-21.4.7-31.8a122.54,122.54,0,0,0,13.5-3.8A140.07,140.07,0,0,1,437.7,724.8Z"/><path class="cls-5" d="M481,683.1c0,26.9-15.5,51.5-41.3,70.8,8.1-35.5,12.9-79.6,12.9-127.4v-3.3C470.6,640.6,481,661.1,481,683.1Z"/><path class="cls-5" d="M452.6,626.5c0,47.8-4.8,91.9-12.9,127.4-2,1.5-4,2.9-6.1,4.3a136.62,136.62,0,0,0,4.1-33.5,139.14,139.14,0,0,0-76.8-124.4A34.85,34.85,0,0,0,327.4,575c-1.1,0-2.3.1-3.4.2.1-.9.1-1.8.2-2.8a24.52,24.52,0,0,0,2.7.2c1.2.1,2.4.2,3.6.4.3,0,.6.1.9.1l2.4.3h.3c1.4.2,2.7.3,4.1.5,1,.1,1.9.3,2.8.4a49491704169893.37,49491704169893.37,0,0,0,4.8.8c1.5.2,3,.5,4.5.8,2.4.4,4.8.9,7.1,1.4.8.2,1.5.3,2.3.5s1.5.3,2.3.5h0c5.8,1.3,11.5,2.8,17,4.5.1,0,.2,0,.2.1,1.1.3,2.2.7,3.3,1s2,.6,3,1c.1,0,.2.1.3.1.9.3,1.9.6,2.8,1,.4.1.8.3,1.2.4,1.9.7,3.8,1.4,5.6,2.1.9.3,1.8.7,2.7,1.1.2.1.3.1.5.2,1,.4,1.9.8,2.9,1.2.2.1.5.2.7.3.8.3,1.6.7,2.4,1,2.7,1.2,5.3,2.4,7.9,3.7.5.2.9.5,1.4.7,1.3.6,2.5,1.3,3.7,1.9,2.4,1.2,4.7,2.5,6.9,3.8.3.2.5.3.8.5s.8.5,1.2.7c.2.1.5.3.7.4.4.3.9.5,1.3.8,1.3.8,2.6,1.6,3.8,2.5.8.6,1.7,1.1,2.5,1.7a8.34,8.34,0,0,0,1.2.8l1.1.8c1.5,1.1,2.9,2.1,4.4,3.3.3.3.7.5,1,.8a2.18,2.18,0,0,1,.5.4c.7.5,1.3,1.1,2,1.6.9.7,1.7,1.5,2.6,2.2.6.6,1.3,1.1,1.9,1.7l3.1,2.8Z"/><path class="cls-5" d="M433.8,476.9c-9-30-20.8-51.2-33.9-59.6h0a23.4,23.4,0,0,0-12.6-4h-1.1c-29.9,1.6-54.8,68.7-62.1,159.2a279.09,279.09,0,0,1,37.8,5.8h0c37.6,8.5,69.4,24.5,90.6,44.9C452.4,566.3,445.2,514.7,433.8,476.9ZM419.5,459c6.6,0,12.2,8.4,13.4,19.5-4.6,7.5-10.6,12.7-17.3,14.2a19.15,19.15,0,0,1-4.1.5,17.59,17.59,0,0,1-4.6-.6,39.59,39.59,0,0,1-1-9.3c0-10.7,3.9-19.8,9.3-23A7.72,7.72,0,0,1,419.5,459Z"/><path class="cls-5" d="M439.7,753.9c-11.9,52.1-30.9,85.8-52.4,85.8a22.47,22.47,0,0,1-8.1-1.6,139,139,0,0,0,54.4-79.8C435.7,756.9,437.7,755.4,439.7,753.9Z"/><path class="cls-16" d="M437.7,724.8a137.22,137.22,0,0,1-4.1,33.5,139.7,139.7,0,0,1-54.4,79.9c-12.6-5.1-24.1-21.9-33.4-47-2.4-6.4-4.6-13.4-6.7-20.8-9.4-33.8-15.6-77.5-16.8-125.8-.1-4.4-.2-8.9-.2-13.3h0v-4.5c0-10.8.2-21.4.7-31.8a122.54,122.54,0,0,0,13.5-3.8,139.67,139.67,0,0,1,24.5,9.5A138.26,138.26,0,0,1,437.7,724.8Z"/><path class="cls-5" d="M273,572.5c-54,4.6-100.4,23.8-128.4,50.8.6-116.1,29.6-209.5,65.3-209.5C240.2,413.7,265.7,481.1,273,572.5Z"/><path class="cls-5" d="M273.2,575h-1.6a34.7,34.7,0,0,0-25.5,11.1,34.2,34.2,0,0,0-7.7,13.3c-.1.1-.2.1-.3.2l-1.8.9-1.8.9c-.6.3-1.2.6-1.7.9-.3.2-.7.3-1,.5-.6.3-1.1.6-1.6.9-.1,0-.2.1-.3.2l-2.1,1.2a23.92,23.92,0,0,0-2.1,1.3c-.7.4-1.3.8-2,1.2h0a21.41,21.41,0,0,0-1.9,1.3c-.4.3-.9.6-1.3.9s-.5.3-.8.5l-1,.7a8.65,8.65,0,0,1-1,.7c-.6.5-1.3.9-1.9,1.4a22,22,0,0,0-1.8,1.4c-.6.5-1.3,1-1.9,1.5s-1.3,1-1.9,1.5l-.1.1-1.8,1.5a.1.1,0,0,0-.1.1c-.6.5-1.2,1-1.7,1.5s-1.1.9-1.6,1.4l-.2.2c-.6.5-1.2,1.1-1.7,1.6l-1.8,1.8c-.5.5-1.1,1-1.6,1.6l-2.1,2.1c-.4.4-.8.9-1.3,1.4s-.9,1-1.4,1.6c-.8.9-1.6,1.8-2.3,2.7-.3.3-.6.7-.9,1s-.4.5-.6.8-.7.8-1,1.2l-1.2,1.5h0a5.55,5.55,0,0,1-.6.8l-.3.3a14.63,14.63,0,0,0-.9,1.3c-.5.7-1,1.3-1.5,2s-1,1.4-1.4,2.1c-.4.5-.7,1.1-1.1,1.6a22.63,22.63,0,0,0-1.3,2c-.3.5-.7,1.1-1,1.6-.1.2-.2.3-.3.5-.2.4-.5.8-.7,1.2-.3.6-.7,1.1-1,1.7-.2.4-.4.7-.6,1.1s-.4.7-.6,1.1-.5.9-.7,1.3c-.3.6-.7,1.3-1,1.9h0c-.2.5-.5.9-.7,1.4a17.38,17.38,0,0,1-1,1.9.1.1,0,0,1-.1.1l-.9,1.8c-.2.4-.4.9-.6,1.3-.6,1.2-1.1,2.5-1.7,3.8-.2.5-.4.9-.6,1.4s-.4,1-.6,1.6c-.2.4-.3.8-.5,1.3-.4.9-.7,1.9-1.1,2.8s-.7,1.9-1,2.9c-.2.5-.3,1-.5,1.4a6.89,6.89,0,0,1-.3.8l-.6,2.1c-.3,1-.6,1.9-.8,2.9a6.47,6.47,0,0,1-.4,1.3c-.3,1-.5,2.1-.8,3.1-.2.7-.3,1.5-.5,2.2,0,.1,0,.2-.1.2a15.52,15.52,0,0,0-.4,2.1c-.1.6-.3,1.3-.4,1.9a14.16,14.16,0,0,1-.4,2v.2a7.84,7.84,0,0,0-.2,1.4l-.3,2.1c0,.3-.1.6-.1.9-.1.7-.2,1.5-.3,2.2-.1.5-.1,1-.2,1.5s-.1,1-.2,1.6-.1,1-.2,1.6c0,.3-.1.7-.1,1s-.1.7-.1,1.1-.1,1-.1,1.5c-.1,1.7-.2,3.5-.2,5.3v3.8a137.22,137.22,0,0,0,4.1,33.5c-2.1-1.4-4.2-2.9-6.2-4.4-8.1-35.5-12.8-79.4-12.8-126.9v-3.7a15.93,15.93,0,0,0,1.3-1.3l.8-.8c.3-.3.6-.5.9-.8s.6-.5.9-.8.6-.5.9-.8c.6-.5,1.2-1.1,1.9-1.6l1.7-1.4c.7-.6,1.4-1.1,2.2-1.7.6-.5,1.2-.9,1.8-1.4s1.4-1.1,2.2-1.6a15.26,15.26,0,0,1,1.6-1.1c.5-.3.9-.7,1.4-1,.2-.1.3-.2.5-.3a14.63,14.63,0,0,1,1.3-.9c.2-.2.5-.3.7-.5.4-.3.8-.5,1.2-.8a23.92,23.92,0,0,1,2.1-1.3,17.39,17.39,0,0,1,1.8-1.1c.8-.5,1.6-.9,2.3-1.4,1.1-.7,2.3-1.3,3.5-2a10.93,10.93,0,0,1,1.5-.8h0c.6-.3,1.1-.6,1.7-.9s.9-.5,1.4-.7c.9-.5,1.8-.9,2.8-1.4a5.36,5.36,0,0,1,1.1-.5,3.55,3.55,0,0,1,.9-.4c.3-.1.6-.3.9-.4l2.4-1.2.6-.3,2.7-1.2c1-.4,1.9-.8,2.9-1.3s2.2-.9,3.3-1.4a4.88,4.88,0,0,1,.7-.3,18,18,0,0,1,2.1-.8l1.5-.6,1.5-.6c1-.4,2.1-.8,3.1-1.1s2.1-.7,3.1-1.1,2.1-.7,3.1-1c.1,0,.2-.1.3-.1l3-.9c.2,0,.3-.1.5-.1l3-.9c.8-.2,1.6-.5,2.5-.7.2-.1.5-.1.7-.2s.7-.2,1.1-.3l2.4-.6h0c1.1-.3,2.2-.6,3.4-.9h0c.6-.1,1.1-.3,1.7-.4s1.1-.3,1.7-.4l2.4-.6,2.8-.6,1.2-.3h.2l1.6-.3c.8-.2,1.6-.3,2.4-.5h.1c1.4-.3,2.9-.6,4.4-.8s3-.5,4.6-.8c.3,0,.6-.1.9-.1s.6-.1.9-.1a.9.9,0,0,0,.5-.1l2.3-.3h.1a9.85,9.85,0,0,1,1.7-.2c.5-.1,1.1-.1,1.6-.2l2-.3a34339860474434.48,34339860474434.48,0,0,0,4-.4c.7-.1,1.3-.1,2-.2,1.5-.2,3-.3,4.5-.4C273.1,573.3,273.2,574.2,273.2,575Z"/><path class="cls-5" d="M218.4,838.4a21.28,21.28,0,0,1-8.5,1.8c-21.5,0-40.6-33.9-52.5-86.3,2,1.5,4.1,3,6.2,4.4A140,140,0,0,0,218.4,838.4Z"/><path class="cls-16" d="M275.2,627c0,5.9-.1,11.7-.2,17.5-1.2,47.6-7.1,90.7-16.3,124.3-2.2,8-4.5,15.5-7.1,22.3-9.2,25.1-20.6,42-33.2,47.3a139.21,139.21,0,0,1-54.8-80.1,136.62,136.62,0,0,1-4.1-33.5V721c0-1.8.1-3.5.2-5.3,0-.5.1-1,.1-1.5s.1-.7.1-1.1.1-.7.1-1a10,10,0,0,1,.2-1.6,8.75,8.75,0,0,1,.2-1.6c.1-.5.1-1,.2-1.5.1-.7.2-1.5.3-2.2,0-.3.1-.6.1-.9l.3-2.1a7.84,7.84,0,0,0,.2-1.4v-.2a14.16,14.16,0,0,1,.4-2,12.86,12.86,0,0,1,.4-1.9c.1-.7.3-1.4.4-2.1,0-.1,0-.2.1-.2.2-.7.3-1.5.5-2.2.3-1.1.5-2.1.8-3.1a6.47,6.47,0,0,1,.4-1.3c.3-1,.5-2,.8-2.9l.6-2.1a6.89,6.89,0,0,1,.3-.8c.2-.5.3-1,.5-1.4.3-1,.7-1.9,1-2.9s.7-1.9,1.1-2.8c.2-.4.3-.8.5-1.3s.4-1,.6-1.6.4-.9.6-1.4c.5-1.3,1.1-2.5,1.7-3.8.2-.4.4-.9.6-1.3l.9-1.8a.1.1,0,0,1,.1-.1,17.38,17.38,0,0,1,1-1.9c.2-.5.5-.9.7-1.4h0c.3-.6.7-1.3,1-1.9.2-.4.5-.9.7-1.3s.4-.7.6-1.1.4-.7.6-1.1c.3-.6.7-1.1,1-1.7.2-.4.5-.8.7-1.2.1-.2.2-.3.3-.5.3-.5.7-1.1,1-1.6.4-.7.9-1.3,1.3-2,.4-.5.7-1.1,1.1-1.6.5-.7.9-1.4,1.4-2.1s1-1.4,1.5-2c.3-.4.6-.9.9-1.3l.3-.3a5.55,5.55,0,0,1,.6-.8h0l1.2-1.5c.3-.4.7-.8,1-1.2s.4-.5.6-.8.6-.7.9-1c.8-.9,1.5-1.8,2.3-2.7.5-.5.9-1,1.4-1.6a16.61,16.61,0,0,1,1.3-1.4l2.1-2.1,1.6-1.6,1.8-1.8c.6-.5,1.2-1.1,1.7-1.6l.2-.2a20,20,0,0,1,1.6-1.4c.6-.5,1.2-1,1.7-1.5a.1.1,0,0,0,.1-.1l1.8-1.5.1-.1c.6-.5,1.2-1,1.9-1.5s1.3-1,1.9-1.5,1.2-.9,1.8-1.4,1.3-.9,1.9-1.4a8.65,8.65,0,0,1,1-.7l1-.7a3.51,3.51,0,0,1,.8-.5c.4-.3.9-.6,1.3-.9.6-.4,1.3-.9,1.9-1.3h0c.7-.4,1.3-.8,2-1.2a23.92,23.92,0,0,0,2.1-1.3l2.1-1.2c.1-.1.2-.1.3-.2.5-.3,1.1-.6,1.6-.9a3.13,3.13,0,0,1,1-.5c.6-.3,1.2-.6,1.7-.9l1.8-.9,1.8-.9c.1-.1.2-.1.3-.2.3-.1.5-.3.8-.4s.5-.2.7-.3a5.94,5.94,0,0,0,.8-.4c.3-.1.6-.3.9-.4s.3-.1.5-.2c.6-.3,1.2-.5,1.7-.8,1.7-.7,3.4-1.4,5.2-2.1.7-.2,1.3-.5,2-.7a.35.35,0,0,0,.2-.1,8.8,8.8,0,0,1,1.5-.5c.1,0,.1,0,.2-.1l1.8-.6c1.5-.5,3-1,4.4-1.4a109.45,109.45,0,0,0,15.2,4c.5,9.9.7,20.1.7,30.4h0C275.2,626.2,275.2,626.6,275.2,627Z"/><path d="M310.4,620.9a11.17,11.17,0,0,1-8.5,10.9,5.82,5.82,0,0,1-1.9.3h-.9a11.28,11.28,0,0,1-5-21.4,10.55,10.55,0,0,1,5-1.2,11,11,0,0,1,8.7,4.2A11.53,11.53,0,0,1,310.4,620.9Z"/><ellipse cx="298.4" cy="700.1" rx="10.8" ry="55.5"/><path class="cls-17" d="M415.6,492.7a98.77,98.77,0,0,1-2.2,12.3,119.93,119.93,0,0,1-51.5,73.4h0a115.86,115.86,0,0,1-10.8,6.2,34.5,34.5,0,0,0-23.9-9.5c-1.1,0-2.3.1-3.4.2a34.68,34.68,0,0,0-21.7,10.5,26.06,26.06,0,0,0-2.7,3.1,26.92,26.92,0,0,0-2.7-3.2A34.48,34.48,0,0,0,273.1,575h-1.6A34.7,34.7,0,0,0,246,586.1a127.94,127.94,0,0,1-13.1-7.2,119.44,119.44,0,0,1-54.5-86.2h0a118,118,0,0,1-.9-14.6,123.38,123.38,0,0,1,2.5-24.5,117.44,117.44,0,0,1,11.1-30.9,19.83,19.83,0,0,1,1.1-2,120.72,120.72,0,0,1,10.9-16.5,128.39,128.39,0,0,1,11.1-12.3l1-1a120.27,120.27,0,0,1,26.1-18.6c.5-.3,1-.5,1.6-.8a113.17,113.17,0,0,1,23.3-8.9c1.5-.4,3-.8,4.5-1.1a116.45,116.45,0,0,1,24.5-2.9h3.6a116.45,116.45,0,0,1,24.5,2.9c1.5.3,3,.7,4.5,1.1a120.71,120.71,0,0,1,23.3,8.9c.5.3,1,.5,1.6.8a120.27,120.27,0,0,1,26.1,18.6,9.43,9.43,0,0,1,1,1,122.87,122.87,0,0,1,20.1,25.4h0c.7,1.1,1.3,2.3,2,3.4A116.35,116.35,0,0,1,414,453.5c.5,2.2.9,4.4,1.2,6.7-5.4,3.2-9.3,12.3-9.3,23a44.93,44.93,0,0,0,1,9.3,17.59,17.59,0,0,0,4.6.6A18.4,18.4,0,0,0,415.6,492.7Z"/><path class="cls-12" d="M289.3,537.5c5.5-5.2.7-13.5-11.1-13.5-18.5,0-27.5,13.1-27.5,20.5,0,9,13.3,15,20.3-.7C274.1,537,284.8,541.8,289.3,537.5Z"/><ellipse class="cls-12" cx="297" cy="335.4" rx="30.6" ry="51.1"/><ellipse class="cls-12" cx="325.4" cy="349.6" rx="30.6" ry="51.1"/><ellipse class="cls-12" cx="358.2" cy="355.9" rx="30.6" ry="51.1"/><ellipse class="cls-12" cx="380.9" cy="383.5" rx="30.6" ry="51.1"/><ellipse class="cls-12" cx="408.5" cy="403.3" rx="30.6" ry="51.1"/><path class="cls-12" d="M442.1,442.1c0,13.5-3.1,25.7-8.2,34.8-.3.5-.6,1.1-.9,1.6-1.2-11.1-6.8-19.5-13.4-19.5a8.21,8.21,0,0,0-4.3,1.2c-5.4,3.2-9.3,12.3-9.3,23a44.93,44.93,0,0,0,1,9.3c-14.7-3.7-26-24.9-26-50.5a77.28,77.28,0,0,1,5.3-28.7,51.93,51.93,0,0,1,4.8-9.1c5.4-8.2,12.6-13.2,20.5-13.2C428.4,391,442.1,413.8,442.1,442.1Z"/><ellipse class="cls-12" cx="297" cy="335.4" rx="30.6" ry="51.1"/><ellipse class="cls-12" cx="268.7" cy="349.6" rx="30.6" ry="51.1"/><ellipse class="cls-12" cx="235.9" cy="355.9" rx="30.6" ry="51.1"/><ellipse class="cls-12" cx="213.2" cy="383.5" rx="30.6" ry="51.1"/><ellipse class="cls-12" cx="185.6" cy="403.3" rx="30.6" ry="51.1"/><ellipse class="cls-12" cx="182.6" cy="442.1" rx="30.6" ry="51.1"/><path class="cls-18" d="M288.8,478.5v.3A35.66,35.66,0,0,1,254.1,507h-6a28.47,28.47,0,0,1-28.3-28.6V467.8a20.48,20.48,0,0,1,19.7-20.4h31.7v7.5h-22a21.83,21.83,0,0,0-21.6,21.9v2.6a20.83,20.83,0,0,0,20.6,20.9h9.4A26,26,0,0,0,283.2,476H289A18.09,18.09,0,0,0,288.8,478.5Z"/><path class="cls-5" d="M276.5,447.6a15.88,15.88,0,0,1,7.7,4A23.22,23.22,0,0,1,276.5,447.6Z"/><path class="cls-5" d="M283.3,463.4v10.8a9.7,9.7,0,0,1-.1,1.7,25.88,25.88,0,0,1-25.6,24.3h-9.4a20.76,20.76,0,0,1-20.6-20.9v-2.6a21.77,21.77,0,0,1,21.6-21.9h25.4A8.56,8.56,0,0,1,283.3,463.4Z"/><path class="cls-5" d="M289.6,473.4c-.1.8-.1,1.6-.2,2.4a29.31,29.31,0,0,1-.5,2.9v-.3a21.12,21.12,0,0,1,.2-2.6A10.27,10.27,0,0,1,289.6,473.4Z"/><path class="cls-19" d="M283.3,463.4v10.8a9.7,9.7,0,0,1-.1,1.7,25.88,25.88,0,0,1-25.6,24.3h-9.4a20.76,20.76,0,0,1-20.6-20.9v-2.6a21.77,21.77,0,0,1,21.6-21.9h25.4A8.56,8.56,0,0,1,283.3,463.4Z"/><path class="cls-18" d="M373.1,467v10.6a28.47,28.47,0,0,1-28.3,28.6h-6a35.55,35.55,0,0,1-34.6-27.9h0a19.48,19.48,0,0,0-.2-2.5h6.8a25.88,25.88,0,0,0,25.5,23.4h9.4a20.76,20.76,0,0,0,20.6-20.9v-2.6a21.77,21.77,0,0,0-21.6-21.9H321.8v-6.6h-4.9a19.48,19.48,0,0,1,2.5-.2h34A19.87,19.87,0,0,1,373.1,467Z"/><path class="cls-5" d="M304,475.9a19.48,19.48,0,0,1,.2,2.5,18.43,18.43,0,0,1-.5-2.5l-.3-2.4A8.44,8.44,0,0,1,304,475.9Z"/><path class="cls-5" d="M315.4,447.5a20,20,0,0,1-6.8,3.7A16.69,16.69,0,0,1,315.4,447.5Z"/><path class="cls-5" d="M366.3,475.7v2.6a20.83,20.83,0,0,1-20.6,20.9h-9.4a25.88,25.88,0,0,1-25.5-23.4,22.6,22.6,0,0,1-.1-2.6V462.4a8.69,8.69,0,0,1,8.6-8.7h25.4A22,22,0,0,1,366.3,475.7Z"/><path class="cls-18" d="M289.7,463.9v6.9a22.6,22.6,0,0,1-.1,2.6h0l-.6,2.4h-5.8c0-.6.1-1.1.1-1.7V463.3a8.69,8.69,0,0,0-8.6-8.7h-3.4v-7.5h2.4a12.61,12.61,0,0,1,2.8.4h0a23.22,23.22,0,0,0,7.7,4A16.7,16.7,0,0,1,289.7,463.9Z"/><path class="cls-5" d="M283.3,463.4v10.8a9.7,9.7,0,0,1-.1,1.7h-6.8a5.14,5.14,0,0,1-5.1-5.2V454.8h3.4A8.54,8.54,0,0,1,283.3,463.4Z"/><path class="cls-18" d="M321.8,447.2v6.6h-2.5a8.69,8.69,0,0,0-8.6,8.7v10.8a22.6,22.6,0,0,0,.1,2.6H304a8.44,8.44,0,0,0-.6-2.4c-.1-1.1-.1-2.1-.1-3.2v-6.9a16.29,16.29,0,0,1,5.2-12h0a21.87,21.87,0,0,0,6.8-3.7l1.5-.3h5Z"/><path class="cls-18" d="M303.3,463.3v6.9c0,1.1,0,2.1.1,3.2-1.2-3.9-3.9-6.5-6.9-6.5s-5.7,2.7-6.9,6.5a22.6,22.6,0,0,0,.1-2.6v-6.9a16.32,16.32,0,0,0-5.5-12.3,41.22,41.22,0,0,0,24.4-.3A16,16,0,0,0,303.3,463.3Z"/><path class="cls-5" d="M303.5,473.4l.6,2.4h-15a10.55,10.55,0,0,1,.6-2.4h0c1.2-3.9,3.9-6.5,6.9-6.5S302.2,469.6,303.5,473.4Z"/><path class="cls-5" d="M316.9,447.2l-1.5.3a20,20,0,0,1-6.8,3.7h0a41.22,41.22,0,0,1-24.4.3,23.22,23.22,0,0,1-7.7-4h0a27,27,0,0,0-2.8-.4h43.2Z"/><path class="cls-5" d="M321.8,453.8v16.8a5.14,5.14,0,0,1-5.1,5.2h-5.9a22.6,22.6,0,0,1-.1-2.6V462.4a8.69,8.69,0,0,1,8.6-8.7h2.5Z"/><path class="cls-5" d="M304.2,478.3h0v.1c0,6.4-3.4,11.6-7.7,11.6s-7.6-5-7.7-11.3v-.3a21.12,21.12,0,0,1,.2-2.6,10.55,10.55,0,0,1,.6-2.4h0c1.2-3.9,3.9-6.5,6.9-6.5s5.7,2.7,6.9,6.5l.6,2.4A11,11,0,0,1,304.2,478.3Z"/><path class="cls-5" d="M318.8,441.2a8.29,8.29,0,0,1-3.1,6.1,1.38,1.38,0,0,1-.4.3,20,20,0,0,1-6.8,3.7h0a41.22,41.22,0,0,1-24.4.3,23.22,23.22,0,0,1-7.7-4h0l-.4-.4a8.65,8.65,0,0,1-3.1-6.1c0-6.7,10.3-12.1,22.9-12.1S318.8,434.4,318.8,441.2Z"/><path class="cls-19" d="M366.3,475.7v2.6a20.83,20.83,0,0,1-20.6,20.9h-9.4a25.88,25.88,0,0,1-25.5-23.4,22.6,22.6,0,0,1-.1-2.6V462.4a8.69,8.69,0,0,1,8.6-8.7h25.4A22,22,0,0,1,366.3,475.7Z"/><path class="cls-12" d="M303.3,537.1c-5.5-5.2-.7-13.5,11.1-13.5,18.5,0,27.5,13.1,27.5,20.5,0,9-13.3,15-20.3-.7C318.5,536.5,307.8,541.3,303.3,537.1Z"/><path class="cls-17" d="M351.2,584.6a109.12,109.12,0,0,1-14.9,6.3q-6.45-1.8-13.2-3c.2-4.3.5-8.5.8-12.6,1.1-.1,2.2-.2,3.4-.2A34.86,34.86,0,0,1,351.2,584.6Z"/><path class="cls-17" d="M323.9,575.3c-.3,4.2-.6,8.4-.8,12.6a143.67,143.67,0,0,0-20.9-2.1A34.68,34.68,0,0,1,323.9,575.3Z"/><path class="cls-17" d="M336.3,590.9a122.54,122.54,0,0,1-13.5,3.8c.1-2.3.2-4.6.3-6.8Q329.85,589.1,336.3,590.9Z"/><path class="cls-17" d="M323.1,587.9c-.1,2.3-.2,4.5-.3,6.8a128.1,128.1,0,0,1-18.6,2.6,38.08,38.08,0,0,0-4.6-8.4,20,20,0,0,1,2.7-3.1A143.71,143.71,0,0,1,323.1,587.9Z"/><path class="cls-15" d="M322,626.5V631h0c-1.1,3.8-2.1,8-3,12.7a35,35,0,0,1-18.9-12,11.26,11.26,0,0,0,8.5-10.9,11,11,0,0,0-2.5-7.1,26.14,26.14,0,0,0,.2-4,34.68,34.68,0,0,0-2.3-12.5,112.61,112.61,0,0,0,18.6-2.6C322.3,605.1,322,615.7,322,626.5Z"/><path class="cls-5" d="M360.8,600.4a139.67,139.67,0,0,0-24.5-9.5,130.43,130.43,0,0,0,14.9-6.3A34.34,34.34,0,0,1,360.8,600.4Z"/><path class="cls-20" d="M362.1,609.9a34.77,34.77,0,0,1-13.6,27.6,35.14,35.14,0,0,1-21.3,7.3,27.37,27.37,0,0,1-5-.4c-.1-4.4-.2-8.9-.2-13.3h0v-4.5c0-10.8.2-21.4.7-31.8a122.54,122.54,0,0,0,13.5-3.8,139.67,139.67,0,0,1,24.5,9.5A28.91,28.91,0,0,1,362.1,609.9Z"/><path class="cls-15" d="M339.1,770.2a6.58,6.58,0,0,1-4.6,2.3c-10.8,0-19.5-35.8-19.5-79.9,0-18.4,1.5-35.3,4.1-48.8a18,18,0,0,0,3.2.6C323.5,692.7,329.7,736.5,339.1,770.2Z"/><path class="cls-15" d="M322.3,644.4c-1.1-.2-2.2-.4-3.2-.6.9-4.7,1.9-9,3-12.7C322.1,635.6,322.2,640,322.3,644.4Z"/><path class="cls-20" d="M353.9,692.6c0,37.6-6.3,69.1-14.8,77.6-9.4-33.8-15.6-77.5-16.8-125.8-.1-4.4-.2-8.9-.2-13.3h0c3.4-11.5,7.7-18.4,12.4-18.4,5.6,0,10.6,9.5,14.1,24.9C351.9,651.9,353.9,671.3,353.9,692.6Z"/><path class="cls-17" d="M304.1,597.3c-2.3.1-4.7.2-7.1.2h-2.3a37.65,37.65,0,0,1,4.7-8.6A31.67,31.67,0,0,1,304.1,597.3Z"/><path class="cls-17" d="M299.5,588.9a31.29,31.29,0,0,0-4.7,8.6,113.6,113.6,0,0,1-20.3-2.1c-.1-2.5-.2-5-.4-7.5a141.92,141.92,0,0,1,22.7-2.1A26.06,26.06,0,0,1,299.5,588.9Z"/><path class="cls-17" d="M274.5,595.4a109.45,109.45,0,0,1-15.2-4l1.1-.3c.2-.1.4-.1.6-.2.9-.2,1.7-.5,2.6-.7.7-.2,1.3-.3,2-.5a18.92,18.92,0,0,1,2.3-.5,9.36,9.36,0,0,0,1.6-.4h.1c.7-.1,1.4-.3,2.1-.4s1.6-.3,2.4-.5C274.2,590.4,274.4,592.9,274.5,595.4Z"/><path class="cls-17" d="M296.8,585.8a141.92,141.92,0,0,0-22.7,2.1c-.1-1.3-.1-2.5-.2-3.8-.1-2.2-.3-4.4-.4-6.5-.1-.9-.1-1.7-.2-2.6A34.54,34.54,0,0,1,296.8,585.8Z"/><path class="cls-17" d="M274.1,587.9a20.48,20.48,0,0,0-2.4.5c-.7.1-1.4.3-2.1.4h-.1a7.49,7.49,0,0,0-1.6.4,18.92,18.92,0,0,1-2.3.5c-.7.2-1.4.3-2,.5-.9.2-1.7.5-2.6.7-.2.1-.4.1-.6.2l-1.1.3a125.34,125.34,0,0,1-13.2-5.3A34.66,34.66,0,0,1,271.6,575h1.6c.1.9.1,1.7.2,2.6.2,2.2.3,4.3.4,6.5C274,585.4,274,586.6,274.1,587.9Z"/><path class="cls-15" d="M298.3,632.1a34.86,34.86,0,0,1-18.5,11.5,110.34,110.34,0,0,0-4.7-17.8h0c0-10.3-.3-20.5-.7-30.4a113.6,113.6,0,0,0,20.3,2.1,34.68,34.68,0,0,0-2.3,12.5v.8a11.28,11.28,0,0,0,5,21.4A2.22,2.22,0,0,0,298.3,632.1Z"/><path class="cls-5" d="M259.2,591.4c-1.5.4-3,.9-4.4,1.4l-1.8.6c-.1,0-.1,0-.2.1a8.8,8.8,0,0,1-1.5.5.35.35,0,0,0-.2.1c-.7.2-1.3.5-2,.7-1.7.7-3.5,1.4-5.2,2.1a8.86,8.86,0,0,0-1.7.8c-.2.1-.3.1-.5.2s-.6.3-.9.4a5.94,5.94,0,0,0-.8.4c-.2.1-.5.2-.7.3s-.5.3-.8.4a34.72,34.72,0,0,1,7.7-13.3A107.1,107.1,0,0,0,259.2,591.4Z"/><path class="cls-20" d="M275.2,627c0,5.9-.1,11.7-.2,17.5-1.1.1-2.2.2-3.4.2a34.52,34.52,0,0,1-21.3-7.3,34.92,34.92,0,0,1-13.6-27.6,32.79,32.79,0,0,1,1.6-10.4c.3-.1.5-.3.8-.4s.5-.2.7-.3a5.94,5.94,0,0,0,.8-.4c.3-.1.6-.3.9-.4s.3-.1.5-.2c.6-.3,1.2-.5,1.7-.8,1.7-.7,3.4-1.4,5.2-2.1.7-.2,1.3-.5,2-.7a.35.35,0,0,0,.2-.1,8.8,8.8,0,0,1,1.5-.5c.1,0,.1,0,.2-.1l1.8-.6c1.5-.5,3-1,4.4-1.4a109.45,109.45,0,0,0,15.2,4c.5,9.9.7,20.1.7,30.4h0A1.8,1.8,0,0,1,275.2,627Z"/><path class="cls-15" d="M306.4,609.8c0,1.3-.1,2.7-.2,4a11.41,11.41,0,0,0-8.7-4.2,10.55,10.55,0,0,0-5,1.2V610a34.68,34.68,0,0,1,2.3-12.5h2.3c2.4,0,4.7-.1,7.1-.2A36.91,36.91,0,0,1,306.4,609.8Z"/><path class="cls-15" d="M283.9,692.5c0,44.1-8.7,79.9-19.5,79.9-2,0-4-1.3-5.8-3.6,9.2-33.6,15.1-76.7,16.3-124.3a38.52,38.52,0,0,0,4.9-.8C282.4,657.2,283.9,674.1,283.9,692.5Z"/><path class="cls-15" d="M275,644.5c.1-5.8.2-11.6.2-17.5v-1.1a113.23,113.23,0,0,1,4.7,17.8A41.66,41.66,0,0,1,275,644.5Z"/><path class="cls-20" d="M275.2,627c0,5.9-.1,11.7-.2,17.5-1.2,47.6-7.1,90.7-16.3,124.3-7.9-10.1-13.7-40.5-13.7-76.3,0-21.4,2-40.7,5.4-55.1,3.5-15.3,8.6-24.8,14.1-24.8,4,0,7.7,4.9,10.7,13.3h0Z"/><path class="cls-14" d="M387.7,805.4a12.74,12.74,0,0,0-1.3,1.9c-6.2-5.9-11.9-14.7-17.2-26l2.3-.6h0C376.5,791.2,381.9,799.6,387.7,805.4Z"/><path d="M375.5,808.6c.8-.1.9-1.1.1-1.2-2.3-.3-5-1.6-7.1-5.2s-1.9-6.7-1.1-8.8c.3-.7-.7-1.1-1.1-.5a10,10,0,0,0-1.1,11.3A10.22,10.22,0,0,0,375.5,808.6Z"/><path d="M373.5,789.3a1.5,1.5,0,0,0,0-3,1.5,1.5,0,0,0,0,3Z"/><path class="cls-14" d="M211.3,806.8a12.74,12.74,0,0,1,1.3,1.9c6.2-5.9,11.9-14.7,17.2-26l-2.3-.6h0C222.5,792.6,217.1,800.9,211.3,806.8Z"/><path d="M223.5,809.9c-.8-.1-.9-1.1-.1-1.2,2.3-.3,5-1.6,7.1-5.2s1.9-6.7,1.1-8.8c-.3-.7.7-1.1,1.1-.5a10,10,0,0,1,1.1,11.3C231.8,808.9,227.7,810.5,223.5,809.9Z"/><path d="M290,863.6q-6.9-.45-13.8-1.5a2,2,0,0,0-.4-.8c-.1-.2-.2-.5-.3-.7l-.3-.6c-.1-.3-.3-.5-.4-.8V835.7a1.58,1.58,0,0,0-1.6-1.6H252.7a1.22,1.22,0,0,0-1.2,1.2v20.5h0l-1.5-.6c-1-.4-2.1-.8-3.1-1.2-.4-.2-.8-.3-1.2-.5-2.6-1.1-5.1-2.2-7.6-3.4,5.2-12.9,14.1-21.4,24.1-21.4C275.3,828.5,286.5,843.3,290,863.6Z"/><path class="cls-21" d="M291.1,877.1c0,26.8-13,48.6-29,48.6s-29-21.7-29-48.6a71.54,71.54,0,0,1,5-27.1c2.5,1.2,5.1,2.4,7.6,3.4.4.2.8.3,1.2.5,1,.4,2.1.8,3.1,1.2l1.5.6h0V858c-3.4,5.1-5.5,12.5-5.5,20.8,0,15.5,7.5,28,16.8,28s16.8-12.6,16.8-28a40.6,40.6,0,0,0-3.3-16.6,123.92,123.92,0,0,0,13.8,1.5A94.76,94.76,0,0,1,291.1,877.1Z"/><path class="cls-12" d="M279.5,878.7c0,15.5-7.5,28-16.8,28s-16.8-12.6-16.8-28c0-8.2,2.1-15.6,5.5-20.8v8.5a11.29,11.29,0,0,0,11.3,11.3,11.86,11.86,0,0,0,11.9-11.9v-4l1.5.3A38.7,38.7,0,0,1,279.5,878.7Z"/><path class="cls-22" d="M354,852.3c-4.1-3.4-8.6-5.4-13.5-5.4-5.8,0-11.2,2.8-15.8,7.5h31.5A22.33,22.33,0,0,0,354,852.3Zm7.9,9.7H319.2c-.1.1-.1.2-.2.3a47.86,47.86,0,0,0-3.4,7.2h50A52.33,52.33,0,0,0,361.9,862Zm-7.9-9.7c-4.1-3.4-8.6-5.4-13.5-5.4-5.8,0-11.2,2.8-15.8,7.5h31.5A22.33,22.33,0,0,0,354,852.3Zm7.9,9.7H319.2c-.1.1-.1.2-.2.3a47.86,47.86,0,0,0-3.4,7.2h50A52.33,52.33,0,0,0,361.9,862Zm-7.9-9.7c-4.1-3.4-8.6-5.4-13.5-5.4-5.8,0-11.2,2.8-15.8,7.5h31.5A22.33,22.33,0,0,0,354,852.3Zm7.9,9.7H319.2c-.1.1-.1.2-.2.3a47.86,47.86,0,0,0-3.4,7.2h50A52.33,52.33,0,0,0,361.9,862Zm-7.9-9.7c-4.1-3.4-8.6-5.4-13.5-5.4-5.8,0-11.2,2.8-15.8,7.5h31.5A22.33,22.33,0,0,0,354,852.3Zm7.9,9.7H319.2c-.1.1-.1.2-.2.3a47.86,47.86,0,0,0-3.4,7.2h50A52.33,52.33,0,0,0,361.9,862Zm-7.9-9.7c-4.1-3.4-8.6-5.4-13.5-5.4-5.8,0-11.2,2.8-15.8,7.5h31.5A22.33,22.33,0,0,0,354,852.3Zm7.9,9.7H319.2c-.1.1-.1.2-.2.3a47.86,47.86,0,0,0-3.4,7.2h50A52.33,52.33,0,0,0,361.9,862Zm-7.9-9.7c-4.1-3.4-8.6-5.4-13.5-5.4-5.8,0-11.2,2.8-15.8,7.5h31.5A22.33,22.33,0,0,0,354,852.3Zm0,0c-4.1-3.4-8.6-5.4-13.5-5.4-5.8,0-11.2,2.8-15.8,7.5h31.5A22.33,22.33,0,0,0,354,852.3Zm7.9,9.7H319.2c-.1.1-.1.2-.2.3a47.86,47.86,0,0,0-3.4,7.2h50A52.33,52.33,0,0,0,361.9,862Zm0,0H319.2c-.1.1-.1.2-.2.3a47.86,47.86,0,0,0-3.4,7.2h50A52.33,52.33,0,0,0,361.9,862Zm-7.9-9.7c-4.1-3.4-8.6-5.4-13.5-5.4-5.8,0-11.2,2.8-15.8,7.5h31.5A22.33,22.33,0,0,0,354,852.3Zm0,0c-4.1-3.4-8.6-5.4-13.5-5.4-5.8,0-11.2,2.8-15.8,7.5h31.5A22.33,22.33,0,0,0,354,852.3Zm7.9,9.7H319.2c-.1.1-.1.2-.2.3a47.86,47.86,0,0,0-3.4,7.2h50A52.33,52.33,0,0,0,361.9,862Zm6.1,15H313.2q-.9,3.6-1.5,7.5h57.9C369.1,882,368.6,879.4,368,877Zm0,0H313.2q-.9,3.6-1.5,7.5h57.9C369.1,882,368.6,879.4,368,877Zm-6.1-15H319.2c-.1.1-.1.2-.2.3a47.86,47.86,0,0,0-3.4,7.2h50A52.33,52.33,0,0,0,361.9,862Zm-7.9-9.7c-4.1-3.4-8.6-5.4-13.5-5.4-5.8,0-11.2,2.8-15.8,7.5h31.5A22.33,22.33,0,0,0,354,852.3Zm0,0c-4.1-3.4-8.6-5.4-13.5-5.4-5.8,0-11.2,2.8-15.8,7.5h31.5A22.33,22.33,0,0,0,354,852.3Zm7.9,9.7H319.2c-.1.1-.1.2-.2.3a47.86,47.86,0,0,0-3.4,7.2h50A52.33,52.33,0,0,0,361.9,862Zm6.1,15H313.2q-.9,3.6-1.5,7.5h57.9C369.1,882,368.6,879.4,368,877Zm0,0H313.2q-.9,3.6-1.5,7.5h57.9C369.1,882,368.6,879.4,368,877Zm-6.1-15H319.2c-.1.1-.1.2-.2.3a47.86,47.86,0,0,0-3.4,7.2h50A52.33,52.33,0,0,0,361.9,862Zm-7.9-9.7c-4.1-3.4-8.6-5.4-13.5-5.4-5.8,0-11.2,2.8-15.8,7.5h31.5A22.33,22.33,0,0,0,354,852.3Zm0,0c-4.1-3.4-8.6-5.4-13.5-5.4-5.8,0-11.2,2.8-15.8,7.5h31.5A22.33,22.33,0,0,0,354,852.3Zm-28.9,87.6c4.5,4.5,9.8,7.1,15.4,7.1s10.9-2.6,15.4-7.1ZM361.9,862H319.2c-.1.1-.1.2-.2.3a47.86,47.86,0,0,0-3.4,7.2h50A52.33,52.33,0,0,0,361.9,862Zm6.1,15H313.2q-.9,3.6-1.5,7.5h57.9C369.1,882,368.6,879.4,368,877Zm1.3,30.8h-58a58.56,58.56,0,0,0,1.4,7.5h55.7c.6-2.4,1-4.9,1.4-7.5Zm0,0h-58a58.56,58.56,0,0,0,1.4,7.5h55.7c.6-2.4,1-4.9,1.4-7.5ZM368,877H313.2q-.9,3.6-1.5,7.5h57.9C369.1,882,368.6,879.4,368,877Zm-6.1-15H319.2c-.1.1-.1.2-.2.3a47.86,47.86,0,0,0-3.4,7.2h50A52.33,52.33,0,0,0,361.9,862Zm-7.9-9.7c-4.1-3.4-8.6-5.4-13.5-5.4-5.8,0-11.2,2.8-15.8,7.5h31.5A22.33,22.33,0,0,0,354,852.3Zm-28.9,87.6c4.5,4.5,9.8,7.1,15.4,7.1s10.9-2.6,15.4-7.1Zm0,0c4.5,4.5,9.8,7.1,15.4,7.1s10.9-2.6,15.4-7.1ZM354,852.3c-4.1-3.4-8.6-5.4-13.5-5.4-5.8,0-11.2,2.8-15.8,7.5h31.5A22.33,22.33,0,0,0,354,852.3Zm7.9,9.7H319.2c-.1.1-.1.2-.2.3a47.86,47.86,0,0,0-3.4,7.2h50A52.33,52.33,0,0,0,361.9,862Zm6.1,15H313.2q-.9,3.6-1.5,7.5h57.9C369.1,882,368.6,879.4,368,877Zm1.3,30.8h-58a58.56,58.56,0,0,0,1.4,7.5h55.7c.6-2.4,1-4.9,1.4-7.5Zm-44.2,32.1c4.5,4.5,9.8,7.1,15.4,7.1s10.9-2.6,15.4-7.1Zm0,0c4.5,4.5,9.8,7.1,15.4,7.1s10.9-2.6,15.4-7.1ZM354,852.3c-4.1-3.4-8.6-5.4-13.5-5.4-5.8,0-11.2,2.8-15.8,7.5h31.5A22.33,22.33,0,0,0,354,852.3Zm7.9,9.7H319.2c-.1.1-.1.2-.2.3a47.86,47.86,0,0,0-3.4,7.2h50A52.33,52.33,0,0,0,361.9,862Zm6.1,15H313.2q-.9,3.6-1.5,7.5h57.9C369.1,882,368.6,879.4,368,877Zm1.3,30.8h-58a58.56,58.56,0,0,0,1.4,7.5h55.7c.6-2.4,1-4.9,1.4-7.5Zm-44.2,32.1c4.5,4.5,9.8,7.1,15.4,7.1s10.9-2.6,15.4-7.1Zm0,0c4.5,4.5,9.8,7.1,15.4,7.1s10.9-2.6,15.4-7.1ZM354,852.3c-4.1-3.4-8.6-5.4-13.5-5.4-5.8,0-11.2,2.8-15.8,7.5h31.5A22.33,22.33,0,0,0,354,852.3Zm7.9,9.7H319.2c-.1.1-.1.2-.2.3a47.86,47.86,0,0,0-3.4,7.2h50A52.33,52.33,0,0,0,361.9,862Zm6.1,15H313.2q-.9,3.6-1.5,7.5h57.9C369.1,882,368.6,879.4,368,877Zm1.3,30.8h-58a58.56,58.56,0,0,0,1.4,7.5h55.7c.6-2.4,1-4.9,1.4-7.5Zm-44.2,32.1c4.5,4.5,9.8,7.1,15.4,7.1s10.9-2.6,15.4-7.1Zm0,0c4.5,4.5,9.8,7.1,15.4,7.1s10.9-2.6,15.4-7.1ZM354,852.3c-4.1-3.4-8.6-5.4-13.5-5.4-5.8,0-11.2,2.8-15.8,7.5h31.5A22.33,22.33,0,0,0,354,852.3Zm7.9,9.7H319.2c-.1.1-.1.2-.2.3a47.86,47.86,0,0,0-3.4,7.2h50A52.33,52.33,0,0,0,361.9,862Zm6.1,15H313.2q-.9,3.6-1.5,7.5h57.9C369.1,882,368.6,879.4,368,877Zm1.3,30.8h-58a58.56,58.56,0,0,0,1.4,7.5h55.7c.6-2.4,1-4.9,1.4-7.5Zm-44.2,32.1c4.5,4.5,9.8,7.1,15.4,7.1s10.9-2.6,15.4-7.1Zm45.2-47.8H310.8c-.1,1.6-.2,3.3-.2,4.9v2.6h59.7V897A40,40,0,0,0,370.3,892.1Zm-1,15.7h-58a58.56,58.56,0,0,0,1.4,7.5h55.7c.6-2.4,1-4.9,1.4-7.5ZM368,877H313.2q-.9,3.6-1.5,7.5h57.9C369.1,882,368.6,879.4,368,877Zm-53.1,45.8c.1.2.2.5.3.7a65.1,65.1,0,0,0,3.4,7.5c.1.2.3.5.4.7h43.1c.1-.2.3-.5.4-.7a51.62,51.62,0,0,0,3.4-7.5c.1-.2.2-.5.3-.7Zm47-60.8H319.2c-.1.1-.1.2-.2.3a47.86,47.86,0,0,0-3.4,7.2h50A52.33,52.33,0,0,0,361.9,862Zm-7.9-9.7c-4.1-3.4-8.6-5.4-13.5-5.4-5.8,0-11.2,2.8-15.8,7.5h31.5A22.33,22.33,0,0,0,354,852.3Zm-28.9,87.6c4.5,4.5,9.8,7.1,15.4,7.1s10.9-2.6,15.4-7.1Zm0,0c4.5,4.5,9.8,7.1,15.4,7.1s10.9-2.6,15.4-7.1Zm44.2-32.1h-58a58.56,58.56,0,0,0,1.4,7.5h55.7c.6-2.4,1-4.9,1.4-7.5ZM368,877H313.2q-.9,3.6-1.5,7.5h57.9C369.1,882,368.6,879.4,368,877Zm-6.1-15H319.2c-.1.1-.1.2-.2.3a47.86,47.86,0,0,0-3.4,7.2h50A52.33,52.33,0,0,0,361.9,862Zm-7.9-9.7c-4.1-3.4-8.6-5.4-13.5-5.4-5.8,0-11.2,2.8-15.8,7.5h31.5A22.33,22.33,0,0,0,354,852.3Zm-28.9,87.6c4.5,4.5,9.8,7.1,15.4,7.1s10.9-2.6,15.4-7.1Zm0,0c4.5,4.5,9.8,7.1,15.4,7.1s10.9-2.6,15.4-7.1Zm44.2-32.1h-58a58.56,58.56,0,0,0,1.4,7.5h55.7c.6-2.4,1-4.9,1.4-7.5ZM368,877H313.2q-.9,3.6-1.5,7.5h57.9C369.1,882,368.6,879.4,368,877Zm-6.1-15H319.2c-.1.1-.1.2-.2.3a47.86,47.86,0,0,0-3.4,7.2h50A52.33,52.33,0,0,0,361.9,862Zm-7.9-9.7c-4.1-3.4-8.6-5.4-13.5-5.4-5.8,0-11.2,2.8-15.8,7.5h31.5A22.33,22.33,0,0,0,354,852.3Zm-28.9,87.6c4.5,4.5,9.8,7.1,15.4,7.1s10.9-2.6,15.4-7.1Zm0,0c4.5,4.5,9.8,7.1,15.4,7.1s10.9-2.6,15.4-7.1Zm44.2-32.1h-58a58.56,58.56,0,0,0,1.4,7.5h55.7c.6-2.4,1-4.9,1.4-7.5ZM368,877H313.2q-.9,3.6-1.5,7.5h57.9C369.1,882,368.6,879.4,368,877Zm-6.1-15H319.2c-.1.1-.1.2-.2.3a47.86,47.86,0,0,0-3.4,7.2h50A52.33,52.33,0,0,0,361.9,862Zm-7.9-9.7c-4.1-3.4-8.6-5.4-13.5-5.4-5.8,0-11.2,2.8-15.8,7.5h31.5A22.33,22.33,0,0,0,354,852.3Zm-28.9,87.6c4.5,4.5,9.8,7.1,15.4,7.1s10.9-2.6,15.4-7.1Zm0,0c4.5,4.5,9.8,7.1,15.4,7.1s10.9-2.6,15.4-7.1Zm44.2-32.1h-58a58.56,58.56,0,0,0,1.4,7.5h55.7c.6-2.4,1-4.9,1.4-7.5ZM368,877H313.2q-.9,3.6-1.5,7.5h57.9C369.1,882,368.6,879.4,368,877Zm-6.1-15H319.2c-.1.1-.1.2-.2.3a47.86,47.86,0,0,0-3.4,7.2h50A52.33,52.33,0,0,0,361.9,862Zm-7.9-9.7c-4.1-3.4-8.6-5.4-13.5-5.4-5.8,0-11.2,2.8-15.8,7.5h31.5A22.33,22.33,0,0,0,354,852.3Zm-28.9,87.6c4.5,4.5,9.8,7.1,15.4,7.1s10.9-2.6,15.4-7.1Zm0,0c4.5,4.5,9.8,7.1,15.4,7.1s10.9-2.6,15.4-7.1ZM354,852.3c-4.1-3.4-8.6-5.4-13.5-5.4-5.8,0-11.2,2.8-15.8,7.5h31.5A22.33,22.33,0,0,0,354,852.3Zm7.9,9.7H319.2c-.1.1-.1.2-.2.3a47.86,47.86,0,0,0-3.4,7.2h50A52.33,52.33,0,0,0,361.9,862Zm6.1,15H313.2q-.9,3.6-1.5,7.5h57.9C369.1,882,368.6,879.4,368,877Zm0,0H313.2q-.9,3.6-1.5,7.5h57.9C369.1,882,368.6,879.4,368,877Zm-6.1-15H319.2c-.1.1-.1.2-.2.3a47.86,47.86,0,0,0-3.4,7.2h50A52.33,52.33,0,0,0,361.9,862Zm-36.8,77.9c4.5,4.5,9.8,7.1,15.4,7.1s10.9-2.6,15.4-7.1ZM354,852.3c-4.1-3.4-8.6-5.4-13.5-5.4-5.8,0-11.2,2.8-15.8,7.5h31.5A22.33,22.33,0,0,0,354,852.3Zm0,0c-4.1-3.4-8.6-5.4-13.5-5.4-5.8,0-11.2,2.8-15.8,7.5h31.5A22.33,22.33,0,0,0,354,852.3Zm7.9,9.7H319.2c-.1.1-.1.2-.2.3a47.86,47.86,0,0,0-3.4,7.2h50A52.33,52.33,0,0,0,361.9,862Zm6.1,15H313.2q-.9,3.6-1.5,7.5h57.9C369.1,882,368.6,879.4,368,877Zm0,0H313.2q-.9,3.6-1.5,7.5h57.9C369.1,882,368.6,879.4,368,877Zm-6.1-15H319.2c-.1.1-.1.2-.2.3a47.86,47.86,0,0,0-3.4,7.2h50A52.33,52.33,0,0,0,361.9,862Zm-7.9-9.7c-4.1-3.4-8.6-5.4-13.5-5.4-5.8,0-11.2,2.8-15.8,7.5h31.5A22.33,22.33,0,0,0,354,852.3Zm0,0c-4.1-3.4-8.6-5.4-13.5-5.4-5.8,0-11.2,2.8-15.8,7.5h31.5A22.33,22.33,0,0,0,354,852.3Zm7.9,9.7H319.2c-.1.1-.1.2-.2.3a47.86,47.86,0,0,0-3.4,7.2h50A52.33,52.33,0,0,0,361.9,862Zm6.1,15H313.2q-.9,3.6-1.5,7.5h57.9C369.1,882,368.6,879.4,368,877Zm0,0H313.2q-.9,3.6-1.5,7.5h57.9C369.1,882,368.6,879.4,368,877Zm-6.1-15H319.2c-.1.1-.1.2-.2.3a47.86,47.86,0,0,0-3.4,7.2h50A52.33,52.33,0,0,0,361.9,862Zm-7.9-9.7c-4.1-3.4-8.6-5.4-13.5-5.4-5.8,0-11.2,2.8-15.8,7.5h31.5A22.33,22.33,0,0,0,354,852.3Zm0,0c-4.1-3.4-8.6-5.4-13.5-5.4-5.8,0-11.2,2.8-15.8,7.5h31.5A22.33,22.33,0,0,0,354,852.3Zm7.9,9.7H319.2c-.1.1-.1.2-.2.3a47.86,47.86,0,0,0-3.4,7.2h50A52.33,52.33,0,0,0,361.9,862Zm-7.9-9.7c-4.1-3.4-8.6-5.4-13.5-5.4-5.8,0-11.2,2.8-15.8,7.5h31.5A22.33,22.33,0,0,0,354,852.3Zm7.9,9.7H319.2c-.1.1-.1.2-.2.3a47.86,47.86,0,0,0-3.4,7.2h50A52.33,52.33,0,0,0,361.9,862Zm-7.9-9.7c-4.1-3.4-8.6-5.4-13.5-5.4-5.8,0-11.2,2.8-15.8,7.5h31.5A22.33,22.33,0,0,0,354,852.3Zm7.9,9.7H319.2c-.1.1-.1.2-.2.3a47.86,47.86,0,0,0-3.4,7.2h50A52.33,52.33,0,0,0,361.9,862Zm-7.9-9.7c-4.1-3.4-8.6-5.4-13.5-5.4-5.8,0-11.2,2.8-15.8,7.5h31.5A22.33,22.33,0,0,0,354,852.3Zm7.9,9.7H319.2c-.1.1-.1.2-.2.3a47.86,47.86,0,0,0-3.4,7.2h50A52.33,52.33,0,0,0,361.9,862Zm-7.9-9.7c-4.1-3.4-8.6-5.4-13.5-5.4-5.8,0-11.2,2.8-15.8,7.5h31.5A22.33,22.33,0,0,0,354,852.3Zm7.9,9.7H319.2c-.1.1-.1.2-.2.3a47.86,47.86,0,0,0-3.4,7.2h50A52.33,52.33,0,0,0,361.9,862Zm-7.9-9.7c-4.1-3.4-8.6-5.4-13.5-5.4-5.8,0-11.2,2.8-15.8,7.5h31.5A22.33,22.33,0,0,0,354,852.3Zm7.9,9.7H319.2c-.1.1-.1.2-.2.3a47.86,47.86,0,0,0-3.4,7.2h50A52.33,52.33,0,0,0,361.9,862Zm-7.9-9.7c-4.1-3.4-8.6-5.4-13.5-5.4-5.8,0-11.2,2.8-15.8,7.5h31.5A22.33,22.33,0,0,0,354,852.3Z"/><path class="cls-23" d="M381.4,895.8c0,37.9-18.4,68.6-41,68.6s-41-30.7-41-68.6a105,105,0,0,1,4.8-32.1l4.9-.3a3.57,3.57,0,0,0-.8,2.3,3.8,3.8,0,0,0,3.8,3.8,3.86,3.86,0,0,0-2.7,1.1,3.69,3.69,0,0,0-1.1,2.7,3.8,3.8,0,0,0,3.8,3.8h-1.4a3.86,3.86,0,0,0-2.7,1.1,3.69,3.69,0,0,0-1.1,2.7,3.8,3.8,0,0,0,3.8,3.8,3.86,3.86,0,0,0-2.7,1.1,3.69,3.69,0,0,0-1.1,2.7,3.8,3.8,0,0,0,3.8,3.8h-1.4a3.86,3.86,0,0,0-2.7,1.1,3.69,3.69,0,0,0-1.1,2.7,3.8,3.8,0,0,0,3.8,3.8h-.7a3.86,3.86,0,0,0-2.7,1.1,3.69,3.69,0,0,0-1.1,2.7,3.8,3.8,0,0,0,3.8,3.8h2.7c0,.2.1.5.1.7h-1.5a3.86,3.86,0,0,0-2.7,1.1,3.69,3.69,0,0,0-1.1,2.7,3.8,3.8,0,0,0,3.8,3.8,3.86,3.86,0,0,0-2.7,1.1,3.69,3.69,0,0,0-1.1,2.7,3.8,3.8,0,0,0,3.8,3.8h5c.1.2.2.5.3.7h-5.3a3.86,3.86,0,0,0-2.7,1.1,3.69,3.69,0,0,0-1.1,2.7,3.8,3.8,0,0,0,3.8,3.8h8.7c.1.2.3.5.4.7h-5a3.86,3.86,0,0,0-2.7,1.1,3.69,3.69,0,0,0-1.1,2.7A3.8,3.8,0,0,0,314,940h10.5a4.62,4.62,0,0,0,.7.7h-7.7a3.86,3.86,0,0,0-2.7,1.1,3.69,3.69,0,0,0-1.1,2.7,3.8,3.8,0,0,0,3.8,3.8h46.4a3.86,3.86,0,0,0,2.7-1.1,3.69,3.69,0,0,0,1.1-2.7,3.8,3.8,0,0,0-3.8-3.8H356a4.62,4.62,0,0,1,.7-.7h7.9a3.86,3.86,0,0,0,2.7-1.1,3.69,3.69,0,0,0,1.1-2.7,3.8,3.8,0,0,0-3.8-3.8h-2.4c.1-.2.3-.5.4-.7h5.5a3.86,3.86,0,0,0,2.7-1.1,3.69,3.69,0,0,0,1.1-2.7,3.8,3.8,0,0,0-3.8-3.8h-2c.1-.2.2-.5.3-.7h3.1a3.86,3.86,0,0,0,2.7-1.1,3.69,3.69,0,0,0,1.1-2.7,3.8,3.8,0,0,0-3.8-3.8,3.86,3.86,0,0,0,2.7-1.1,3.69,3.69,0,0,0,1.1-2.7,3.77,3.77,0,0,0-3.3-3.7c0-.2.1-.5.1-.7h1.3a3.7,3.7,0,0,0,2.1-.6h0a1.79,1.79,0,0,0,.7-.5,3.78,3.78,0,0,0,1.2-2.7,3.7,3.7,0,0,0-1.4-2.9,3.92,3.92,0,0,0-2.6-.9h-.5a3.86,3.86,0,0,0,2.7-1.1,3.69,3.69,0,0,0,1.1-2.7,3.8,3.8,0,0,0-3.8-3.8h-.4a4.42,4.42,0,0,0,2.4-1.1,3.69,3.69,0,0,0,1.1-2.7,3.8,3.8,0,0,0-3.8-3.8,3.86,3.86,0,0,0,2.7-1.1A3.69,3.69,0,0,0,374,881a3.8,3.8,0,0,0-3.8-3.8h1.4a3.86,3.86,0,0,0,2.7-1.1,3.69,3.69,0,0,0,1.1-2.7,3.8,3.8,0,0,0-3.8-3.8,3.86,3.86,0,0,0,2.7-1.1,3.69,3.69,0,0,0,1.1-2.7,3.8,3.8,0,0,0-3.8-3.8h-3.4a3.86,3.86,0,0,0,2.7-1.1,3.69,3.69,0,0,0,1.1-2.7,3.8,3.8,0,0,0-3.8-3.8h-6.8a3.86,3.86,0,0,0,2.7-1.1,3.69,3.69,0,0,0,1.1-2.7,3.56,3.56,0,0,0-1.4-2.9c1.6-.8,3.1-1.7,4.6-2.6C376.3,857.8,381.4,875.8,381.4,895.8Z"/><path class="cls-23" d="M368.1,845.3c-1.5.9-3.1,1.7-4.6,2.6a3.85,3.85,0,0,0-2.4-.8H318.7a3.86,3.86,0,0,0-2.7,1.1,3.69,3.69,0,0,0-1.1,2.7,3.8,3.8,0,0,0,3.8,3.8h-7.5a3.86,3.86,0,0,0-2.7,1.1,3.69,3.69,0,0,0-1.1,2.7,3.8,3.8,0,0,0,3.8,3.8h.7a3.86,3.86,0,0,0-2.7,1.1,1.38,1.38,0,0,0-.3.4l-4.9.3c6.9-21.7,20.5-36.6,36.3-36.6C351,827.2,360.8,834,368.1,845.3Z"/><path d="M276.2,862l-1.5-.3V859a3,3,0,0,1,.4.8l.3.6c.1.2.2.5.3.7A4.38,4.38,0,0,1,276.2,862Z"/><path class="cls-4" d="M279.5,878.7c0,15.5-7.5,28-16.8,28s-16.8-12.6-16.8-28c0-8.2,2.1-15.6,5.5-20.8v8.5a11.29,11.29,0,0,0,11.3,11.3,11.86,11.86,0,0,0,11.9-11.9v-4l1.5.3A38.7,38.7,0,0,1,279.5,878.7Z"/><path d="M356.3,854.5H324.8c4.6-4.8,10-7.5,15.8-7.5,4.9,0,9.4,1.9,13.5,5.4A21.32,21.32,0,0,1,356.3,854.5Z"/><path d="M365.5,869.5h-50a47.86,47.86,0,0,1,3.4-7.2c.1-.1.1-.2.2-.3h42.7A37.39,37.39,0,0,1,365.5,869.5Z"/><path d="M369.5,884.5H311.6q.6-3.9,1.5-7.5H368C368.6,879.4,369.1,882,369.5,884.5Z"/><path class="cls-23" d="M356.6,939.2a4.62,4.62,0,0,1-.7.7H325.1a4.62,4.62,0,0,0-.7-.7Z"/><path d="M355.9,939.9c-4.5,4.5-9.8,7.1-15.4,7.1s-10.9-2.6-15.4-7.1Z"/><path d="M366.2,922.8c-.1.2-.2.5-.3.7a65.1,65.1,0,0,1-3.4,7.5c-.1.2-.3.5-.4.7H319c-.1-.2-.3-.5-.4-.7a51.62,51.62,0,0,1-3.4-7.5c-.1-.2-.2-.5-.3-.7Z"/><path class="cls-23" d="M369.8,907.1c0,.2-.1.5-.1.7H311.3c0-.2-.1-.5-.1-.7-.3-2.4-.5-5-.6-7.5q.15,3.9.6,7.5Z"/><path d="M369.7,907.8a58.56,58.56,0,0,1-1.4,7.5H312.6c-.6-2.4-1-4.9-1.4-7.5h58.5Z"/><path d="M370.4,897v2.6H310.7V897a39.34,39.34,0,0,1,.2-4.9h59.4C370.4,893.7,370.4,895.3,370.4,897Z"/><path class="cls-23" d="M324.8,854.5a44.38,44.38,0,0,0-5.6,7.5h-7.9a3.8,3.8,0,0,1-3.8-3.8,3.86,3.86,0,0,1,1.1-2.7,3.69,3.69,0,0,1,2.7-1.1h13.5Z"/><path class="cls-23" d="M371.7,858.2a3.86,3.86,0,0,1-1.1,2.7,3.69,3.69,0,0,1-2.7,1.1h-6a40.7,40.7,0,0,0-5.6-7.5h11.6A3.78,3.78,0,0,1,371.7,858.2Z"/><path class="cls-23" d="M361.9,862H321.2a140.42,140.42,0,0,0,27.6-7.5h7.5A36.66,36.66,0,0,1,361.9,862Z"/><path class="cls-23" d="M348.8,854.5a140.42,140.42,0,0,1-27.6,7.5h-2a40.7,40.7,0,0,1,5.6-7.5Z"/><path class="cls-23" d="M319,862.4a47.86,47.86,0,0,0-3.4,7.2H312a3.8,3.8,0,0,1-3.8-3.8,3.57,3.57,0,0,1,.8-2.3C312.3,863.2,315.7,862.8,319,862.4Z"/><path class="cls-23" d="M319.2,862c-.1.1-.1.2-.2.3-3.3.5-6.6.9-10,1.1a1.38,1.38,0,0,0,.3-.4,3.69,3.69,0,0,1,2.7-1.1h7.2Z"/><path class="cls-23" d="M375.1,865.8a3.86,3.86,0,0,1-1.1,2.7,3.69,3.69,0,0,1-2.7,1.1h-5.8a65.31,65.31,0,0,0-3.6-7.5h9.5A3.63,3.63,0,0,1,375.1,865.8Z"/><path d="M365.5,869.5h-50a47.86,47.86,0,0,1,3.4-7.2c.1-.1.1-.2.2-.3h42.7A37.39,37.39,0,0,1,365.5,869.5Z"/><path class="cls-23" d="M315.6,869.5a59.68,59.68,0,0,0-2.4,7.5H312a3.8,3.8,0,0,1-3.8-3.8,3.86,3.86,0,0,1,1.1-2.7,3.69,3.69,0,0,1,2.7-1.1h3.6Z"/><path class="cls-23" d="M375.1,873.3A3.86,3.86,0,0,1,374,876a3.69,3.69,0,0,1-2.7,1.1H368q-1-3.9-2.4-7.5h5.8A3.63,3.63,0,0,1,375.1,873.3Z"/><path class="cls-23" d="M368,877H313.2q1.05-3.9,2.4-7.5h50Q367,873.1,368,877Z"/><path class="cls-23" d="M313.1,877q-.9,3.6-1.5,7.5h-1a3.8,3.8,0,0,1-3.8-3.8,3.86,3.86,0,0,1,1.1-2.7,3.69,3.69,0,0,1,2.7-1.1h2.5Z"/><path class="cls-23" d="M373.8,880.8a3.86,3.86,0,0,1-1.1,2.7,3.69,3.69,0,0,1-2.7,1.1h-.5q-.6-3.9-1.5-7.5h2A3.65,3.65,0,0,1,373.8,880.8Z"/><path d="M369.5,884.5H311.6q.6-3.9,1.5-7.5H368C368.6,879.4,369.1,882,369.5,884.5Z"/><path class="cls-23" d="M311.6,884.5c-.4,2.4-.6,4.9-.8,7.5h-.2a3.8,3.8,0,0,1-3.8-3.8,3.86,3.86,0,0,1,1.1-2.7,3.69,3.69,0,0,1,2.7-1.1h1Z"/><path class="cls-23" d="M373.8,888.3a3.77,3.77,0,0,1-3.5,3.8,59.39,59.39,0,0,0-.8-7.5h.5A3.65,3.65,0,0,1,373.8,888.3Z"/><path class="cls-23" d="M370.3,892H310.8a59.39,59.39,0,0,1,.8-7.5h57.9A63.62,63.62,0,0,1,370.3,892Z"/><path class="cls-23" d="M340.5,847c-5.8,0-11.2,2.8-15.8,7.5h-6a3.8,3.8,0,0,1-3.8-3.8A3.86,3.86,0,0,1,316,848a3.69,3.69,0,0,1,2.7-1.1h21.8Z"/><path class="cls-23" d="M364.9,850.7a3.86,3.86,0,0,1-1.1,2.7,3.69,3.69,0,0,1-2.7,1.1h-4.8a15.07,15.07,0,0,0-2.3-2.1c3.2-1.4,6.4-2.9,9.4-4.5A3.46,3.46,0,0,1,364.9,850.7Z"/><path class="cls-23" d="M363.5,847.8c-3.1,1.6-6.2,3.1-9.4,4.5-4.1-3.4-8.6-5.4-13.5-5.4h20.6A5,5,0,0,1,363.5,847.8Z"/><path d="M356.3,854.5H324.8c4.6-4.8,10-7.5,15.8-7.5,4.9,0,9.4,1.9,13.5,5.4A21.32,21.32,0,0,1,356.3,854.5Z"/><path class="cls-23" d="M311.3,907.1h-2.7a3.8,3.8,0,0,1-3.8-3.8,3.86,3.86,0,0,1,1.1-2.7,3.69,3.69,0,0,1,2.7-1.1h2.2A63.26,63.26,0,0,0,311.3,907.1Z"/><path class="cls-23" d="M375.1,903.3a3.57,3.57,0,0,1-1.2,2.7,3,3,0,0,1-.7.5h0a4.69,4.69,0,0,1-2.1.6h-1.3a1.27,1.27,0,0,1,.1-.6h0c.2-2,.4-4,.5-6.1v-.9h.7a3.92,3.92,0,0,1,2.6.9A3.85,3.85,0,0,1,375.1,903.3Z"/><path class="cls-23" d="M370.4,899.6v.9a60.21,60.21,0,0,1-.5,6.1h0a1.27,1.27,0,0,1-.1.6H311.3c-.3-2.4-.5-5-.6-7.5h59.7Z"/><path class="cls-23" d="M312.7,915.3h-2.8a3.8,3.8,0,0,1-3.8-3.8,3.86,3.86,0,0,1,1.1-2.7,3.69,3.69,0,0,1,2.7-1.1h1.5A57.26,57.26,0,0,0,312.7,915.3Z"/><path class="cls-23" d="M373.1,911.5a3.86,3.86,0,0,1-1.1,2.7,3.69,3.69,0,0,1-2.7,1.1h-.9c.6-2.4,1-4.9,1.4-7.5A3.77,3.77,0,0,1,373.1,911.5Z"/><path d="M369.7,907.8a58.56,58.56,0,0,1-1.4,7.5H312.6c-.6-2.4-1-4.9-1.4-7.5h58.5Z"/><path class="cls-23" d="M314.9,922.8h-5a3.8,3.8,0,0,1-3.8-3.8,3.86,3.86,0,0,1,1.1-2.7,3.69,3.69,0,0,1,2.7-1.1h2.8A75.75,75.75,0,0,0,314.9,922.8Z"/><path class="cls-23" d="M373.1,919a3.86,3.86,0,0,1-1.1,2.7,3.69,3.69,0,0,1-2.7,1.1h-3.1a59.23,59.23,0,0,0,2.2-7.5h.9A3.78,3.78,0,0,1,373.1,919Z"/><path class="cls-23" d="M368.4,915.3c-.6,2.6-1.4,5.1-2.2,7.5H315a59.23,59.23,0,0,1-2.2-7.5Z"/><path class="cls-23" d="M318.6,931h-8.7a3.8,3.8,0,0,1-3.8-3.8,3.86,3.86,0,0,1,1.1-2.7,3.69,3.69,0,0,1,2.7-1.1h5.3A48.38,48.38,0,0,0,318.6,931Z"/><path class="cls-23" d="M371.7,927.2a3.86,3.86,0,0,1-1.1,2.7,3.69,3.69,0,0,1-2.7,1.1h-5.5a51.62,51.62,0,0,0,3.4-7.5h2A3.8,3.8,0,0,1,371.7,927.2Z"/><path d="M365.9,923.5a65.1,65.1,0,0,1-3.4,7.5H318.6a51.62,51.62,0,0,1-3.4-7.5Z"/><path class="cls-23" d="M324.5,939.2H314a3.8,3.8,0,0,1-3.8-3.8,3.86,3.86,0,0,1,1.1-2.7,3.69,3.69,0,0,1,2.7-1.1h5A37.1,37.1,0,0,0,324.5,939.2Z"/><path class="cls-23" d="M368.3,935.4a3.86,3.86,0,0,1-1.1,2.7,3.69,3.69,0,0,1-2.7,1.1h-7.9a39.26,39.26,0,0,0,5.5-7.5h2.4A3.78,3.78,0,0,1,368.3,935.4Z"/><path class="cls-23" d="M362.1,931.7a39.26,39.26,0,0,1-5.5,7.5H324.5a44,44,0,0,1-5.5-7.5Z"/><path class="cls-23" d="M310.6,897v2.6h-1.5a3.8,3.8,0,0,1-3.8-3.8,3.86,3.86,0,0,1,1.1-2.7,3.69,3.69,0,0,1,2.7-1.1h1.6C310.7,893.7,310.6,895.3,310.6,897Z"/><path class="cls-23" d="M374.4,895.8a3.86,3.86,0,0,1-1.1,2.7,3.69,3.69,0,0,1-2.7,1.1h-.3V897a39.34,39.34,0,0,0-.2-4.9h.4A3.68,3.68,0,0,1,374.4,895.8Z"/><path d="M370.4,897v2.6H310.7V897a39.34,39.34,0,0,1,.2-4.9h59.5Z"/><path class="cls-23" d="M367.6,943.6a3.86,3.86,0,0,1-1.1,2.7,3.69,3.69,0,0,1-2.7,1.1H317.4a3.8,3.8,0,0,1-3.8-3.8,3.86,3.86,0,0,1,1.1-2.7,3.69,3.69,0,0,1,2.7-1.1h7.7c4.5,4.5,9.8,7.1,15.4,7.1s10.9-2.6,15.4-7.1h7.9A3.93,3.93,0,0,1,367.6,943.6Z"/><path d="M355.9,939.9c-4.5,4.5-9.8,7.1-15.4,7.1s-10.9-2.6-15.4-7.1Z"/><path class="cls-15" d="M263.4,877h0a12,12,0,0,1-12-12V833.2h23.8a.1.1,0,0,1,.1.1v31.6A11.85,11.85,0,0,1,263.4,877Z"/><path d="M263.4,875.7h0a10.67,10.67,0,0,1-10.6-10.6V833.3H274v31.8A10.61,10.61,0,0,1,263.4,875.7Z"/><path d="M273,882.5H252.5a1.75,1.75,0,0,1-1.7-1.7h0a1.75,1.75,0,0,1,1.7-1.7H273a1.75,1.75,0,0,1,1.7,1.7h0A1.75,1.75,0,0,1,273,882.5Z"/><path d="M268.9,888.6H256.6a1.75,1.75,0,0,1-1.7-1.7h0a1.75,1.75,0,0,1,1.7-1.7h12.3a1.75,1.75,0,0,1,1.7,1.7h0A1.69,1.69,0,0,1,268.9,888.6Z"/><path class="cls-20" d="M171,751a.71.71,0,0,0,1-1c-1.9-2.4-4.2-7.5-4.8-17.8s1.1-15.6,2.6-18.3a.72.72,0,0,0-1.1-.9c-3.3,3.2-5.2,10.7-4.7,19.3S167.4,748.2,171,751Z"/><path class="cls-20" d="M424.5,751a.71.71,0,0,1-1-1c1.9-2.4,4.2-7.5,4.8-17.8s-1.1-15.6-2.6-18.3a.72.72,0,0,1,1.1-.9c3.3,3.2,5.2,10.7,4.7,19.3S428.2,748.2,424.5,751Z"/><path class="cls-12" d="M432.9,478.5c-4.6,7.5-10.6,12.7-17.3,14.2a118,118,0,0,0,.9-14.6,129.67,129.67,0,0,0-1.3-17.8,8.48,8.48,0,0,1,4.3-1.2C426.2,459,431.7,467.4,432.9,478.5Z"/><path class="cls-12" d="M416.5,478a116.81,116.81,0,0,1-.9,14.6,19.15,19.15,0,0,1-4.1.5,17.59,17.59,0,0,1-4.6-.6,39.59,39.59,0,0,1-1-9.3c0-10.7,3.9-19.8,9.3-23A116.57,116.57,0,0,1,416.5,478Z"/><path class="cls-17" d="M433.2,483.2c0,13.4-6.1,24.2-13.7,24.2a9.37,9.37,0,0,1-6.1-2.5c-3-2.6-5.3-7-6.6-12.4a17.59,17.59,0,0,0,4.6.6,18.41,18.41,0,0,0,4.1-.5c6.7-1.5,12.7-6.6,17.3-14.2A25.92,25.92,0,0,1,433.2,483.2Z"/><ellipse class="cls-12" cx="297.2" cy="335.5" rx="30.6" ry="51.1"/><ellipse class="cls-12" cx="268.8" cy="349.6" rx="30.6" ry="51.1"/><ellipse class="cls-12" cx="236" cy="356" rx="30.6" ry="51.1"/><ellipse class="cls-12" cx="213.3" cy="383.5" rx="30.6" ry="51.1"/><ellipse class="cls-12" cx="185.7" cy="403.3" rx="30.6" ry="51.1"/><path class="cls-12" d="M152.1,442.1c0,13.5,3.1,25.7,8.2,34.8.3.5.6,1.1.9,1.6,1.2-11.1,6.8-19.5,13.4-19.5a8.21,8.21,0,0,1,4.3,1.2c5.4,3.2,9.3,12.3,9.3,23a44.93,44.93,0,0,1-1,9.3c14.7-3.7,26-24.9,26-50.5a77.28,77.28,0,0,0-5.3-28.7,51.93,51.93,0,0,0-4.8-9.1c-5.4-8.2-12.6-13.2-20.5-13.2C165.8,391,152.1,413.9,152.1,442.1Z"/><path class="cls-12" d="M161.3,478.5c4.6,7.5,10.6,12.7,17.3,14.2a118,118,0,0,1-.9-14.6,129.67,129.67,0,0,1,1.3-17.8,8.48,8.48,0,0,0-4.3-1.2C168,459,162.5,467.4,161.3,478.5Z"/><path class="cls-17" d="M161,483.3c0,13.4,6.1,24.2,13.7,24.2a9.37,9.37,0,0,0,6.1-2.5c3-2.6,5.3-7,6.6-12.4a17.59,17.59,0,0,1-4.6.6,18.41,18.41,0,0,1-4.1-.5c-6.7-1.5-12.7-6.6-17.3-14.2A24.55,24.55,0,0,0,161,483.3Z"/><path class="cls-24" d="M417.3,504.2h0a4.1,4.1,0,0,1,0-5.8h0a4.1,4.1,0,0,1,5.8,0h0a4.1,4.1,0,0,1,0,5.8h0A4.1,4.1,0,0,1,417.3,504.2Z"/><path class="cls-4" d="M420.2,504.1h0a2.69,2.69,0,0,1-2.7-2.7h0a2.69,2.69,0,0,1,2.7-2.7h0a2.69,2.69,0,0,1,2.7,2.7h0A2.75,2.75,0,0,1,420.2,504.1Z"/><path class="cls-24" d="M170.7,504.2h0a4.1,4.1,0,0,1,0-5.8h0a4.1,4.1,0,0,1,5.8,0h0a4.1,4.1,0,0,1,0,5.8h0A4.1,4.1,0,0,1,170.7,504.2Z"/><path class="cls-4" d="M173.6,504.1h0a2.69,2.69,0,0,1-2.7-2.7h0a2.69,2.69,0,0,1,2.7-2.7h0a2.69,2.69,0,0,1,2.7,2.7h0A2.75,2.75,0,0,1,173.6,504.1Z"/><polygon class="cls-13" points="926.8 386.4 919.9 734.9 799.3 732.5 863.1 559.2 926.8 386.4"/><polygon class="cls-12" points="1040.5 737.4 919.9 734.9 919.9 734.9 926.8 386.4 926.9 386 983.7 561.7 1040.5 737.4"/><path class="cls-5" d="M1879,328.7v104c-96.4,95.6-251,157.6-425.3,157.6-231.5,0-428.3-109.3-500.1-261.6Z"/><path class="cls-13" d="M1670.4,813.8l1.1,67h72v-67Zm0,0,1.1,67h72v-67Zm0,0,1.1,67h72v-67Zm-292.8,0,.9,67h71.8v-67Zm292.8,0,1.1,67h72v-67Zm-1.3-82.8.2,13.4h74.3V731Zm-291.5,82.8.9,67h71.8v-67Zm292.8,0,1.1,67h72v-67Zm-1.3-82.8.2,13.4h74.3V731Zm-291.5,82.8.9,67h71.8v-67Zm292.8,0,1.1,67h72v-67Zm-1.3-82.8.2,13.4h74.3V731Zm-291.5,82.8.9,67h71.8v-67Zm292.8,0,1.1,67h72v-67Zm-1.3-82.8.2,13.4h74.3V731Zm-291.5,82.8.9,67h71.8v-67Zm292.8,0,1.1,67h72v-67Zm-1.3-82.8.2,13.4h74.3V731Zm-291.5,82.8.9,67h71.8v-67Zm292.8,0,1.1,67h72v-67Zm-1.3-82.8.2,13.4h74.3V731Zm-291.5,82.8.9,67h71.8v-67Zm0,0,.9,67h71.8v-67Zm292.8,0,1.1,67h72v-67Zm-1.3-82.8.2,13.4h74.3V731Zm-291.5,82.8.9,67h71.8v-67Zm0,0,.9,67h71.8v-67Zm72.8-82.8v82.8h74.1l.9-69.4.2-13.4Zm220,82.8,1.1,67h72v-67Zm-1.3-82.8.2,13.4h74.3V731Zm-218.7,0v82.8h74.1l.9-69.4.2-13.4Zm-72.8,82.8.9,67h71.8v-67Zm-1.1-82.8h-72.1v13.4h72.2Zm-141.7-64.4V731h69.7V666.6ZM1156.9,731l.1,13.4.5,69.4h77.2V731Zm220.7,82.8.9,67h71.8v-67Zm72.8-82.8v82.8h74.1l.9-69.4.2-13.4Zm220,82.8,1.1,67h72v-67Zm-1.3-82.8.2,13.4h74.3V731Zm-218.7,0v82.8h74.1l.9-69.4.2-13.4Zm-72.8,82.8.9,67h71.8v-67Zm-1.1-82.8h-72.1v13.4h72.2Zm-141.7-64.4V731h69.7V666.6ZM1156.9,731l.1,13.4.5,69.4h77.2V731Zm219.6,0h-72.1v13.4h72.2Zm-141.7-64.4V731h69.7V666.6ZM1156.9,731l.1,13.4.5,69.4h77.2V731Zm220.7,82.8.9,67h71.8v-67Zm72.8-82.8v82.8h74.1l.9-69.4.2-13.4Zm220,82.8,1.1,67h72v-67Zm0,0,1.1,67h72v-67Zm-1.3-82.8.2,13.4h74.3V731Zm-218.7,0v82.8h74.1l.9-69.4.2-13.4Zm-72.8,82.8.9,67h71.8v-67Zm-1.1-82.8h-72.1v13.4h72.2Zm-141.7-64.4V731h69.7V666.6ZM1156.9,731l.1,13.4.5,69.4h77.2V731Zm0,0,.1,13.4.5,69.4h77.2V731Zm77.9-64.4V731h69.7V666.6ZM1376.5,731h-72.1v13.4h72.2Zm1.1,82.8.9,67h71.8v-67Zm72.8-82.8v82.8h74.1l.9-69.4.2-13.4Zm144.8-64.4.6,64.4h73.3l.2,13.4h74.3V666.6Zm75.2,147.2,1.1,67h72v-67Zm0,0,1.1,67h72v-67Zm-75.2-147.2.6,64.4h73.3l.2,13.4h74.3V666.6ZM1450.4,731v82.8h74.1l.9-69.4.2-13.4Zm-72.8,82.8.9,67h71.8v-67Zm-1.1-82.8h-72.1v13.4h72.2Zm-141.7-64.4V731h69.7V666.6ZM1156.9,731l.1,13.4.5,69.4h77.2V731Zm0,0,.1,13.4.5,69.4h77.2V731Zm77.9-64.4V731h69.7V666.6ZM1376.5,731h-72.1v13.4h72.2Zm1.1,82.8.9,67h71.8v-67Zm72.8-82.8v82.8h74.1l.9-69.4.2-13.4Zm144.8-64.4.6,64.4h73.3l.2,13.4h74.3V666.6Zm75.2,147.2,1.1,67h72v-67Zm1.2,67.1h72v-67h-73.1Zm-76.4-214.3.6,64.4h73.3l.2,13.4h74.3V666.6ZM1450.4,813.8h74.1l.9-69.4.2-13.4h-75.2Zm-71.9,67.1h71.8v-67h-72.8Zm-74-149.9v13.4h72.2l-.2-13.4Zm-69.7-64.4V731h69.7V666.6ZM1157,744.4l.5,69.4h77.2V731h-77.9Zm296.7-154.1c-231.5,0-428.3-109.3-500.1-261.6h-.2V996.6H1879V432.7C1782.6,528.3,1628,590.3,1453.7,590.3Zm372.7,5.3h-82.8v71h82.8V943.4H1597.6l-.5-62.5h-73.5l-.8,62.5H1304.5V813.8h-69.7V943.4h-76.2l-.5-62.5h-78.4v62.5h-70.9V880.9h70.9v-67h-70.9V744.5h70.9V666.7h-70.9v-196h.1c29.2,49.6,81.8,92.8,149.9,124.9h-2.9l.5,71h78.3V624.8a682.53,682.53,0,0,0,69.7,17.3q34.35,6.75,71,10.2l.2,14.3.9,64.4h73.9V666.6h76.1l.2-14.4a707.1,707.1,0,0,0,140.7-27.7,565,565,0,0,0,75.2-29c31.5-14.9,59.8-32.1,83.8-51.3v51.4Zm-82.8,285.3v-67h-73.1l1.1,67ZM1595.2,666.6l.6,64.4h73.3l.2,13.4h74.3V666.6ZM1450.4,813.8h74.1l.9-69.4.2-13.4h-75.2Zm-71.9,67.1h71.8v-67h-72.8Zm-74-136.5h72.2l-.2-13.4h-72.1v13.4Zm0-13.4V666.6h-69.7V731Zm-69.7,0h-77.9l.1,13.4.5,69.4h77.2V731Zm-77.9,0,.1,13.4.5,69.4h77.2V731Zm77.9-64.4V731h69.7V666.6ZM1376.5,731h-72.1v13.4h72.2Zm1.1,82.8.9,67h71.8v-67Zm72.8-82.8v82.8h74.1l.9-69.4.2-13.4Zm144.8-64.4.6,64.4h73.3l.2,13.4h74.3V666.6Zm75.2,147.2,1.1,67h72v-67Zm0,0,1.1,67h72v-67Zm-75.2-147.2.6,64.4h73.3l.2,13.4h74.3V666.6ZM1450.4,731v82.8h74.1l.9-69.4.2-13.4Zm-72.8,82.8.9,67h71.8v-67Zm-1.1-82.8h-72.1v13.4h72.2Zm-141.7-64.4V731h69.7V666.6ZM1156.9,731l.1,13.4.5,69.4h77.2V731Zm0,0,.1,13.4.5,69.4h77.2V731Zm77.9-64.4V731h69.7V666.6ZM1376.5,731h-72.1v13.4h72.2Zm1.1,82.8.9,67h71.8v-67Zm72.8-82.8v82.8h74.1l.9-69.4.2-13.4Zm218.7,0,.2,13.4h74.3V731Zm1.3,82.8,1.1,67h72v-67Zm0,0,1.1,67h72v-67Zm-220-82.8v82.8h74.1l.9-69.4.2-13.4Zm-72.8,82.8.9,67h71.8v-67Zm-1.1-82.8h-72.1v13.4h72.2Zm-141.7-64.4V731h69.7V666.6ZM1156.9,731l.1,13.4.5,69.4h77.2V731Zm219.6,0h-72.1v13.4h72.2Zm-141.7-64.4V731h69.7V666.6ZM1156.9,731l.1,13.4.5,69.4h77.2V731Zm220.7,82.8.9,67h71.8v-67Zm72.8-82.8v82.8h74.1l.9-69.4.2-13.4Zm218.7,0,.2,13.4h74.3V731Zm1.3,82.8,1.1,67h72v-67Zm0,0,1.1,67h72v-67Zm-220-82.8v82.8h74.1l.9-69.4.2-13.4Zm-72.8,82.8.9,67h71.8v-67Zm-1.1-82.8h-72.1v13.4h72.2Zm-141.7-64.4V731h69.7V666.6ZM1156.9,731l.1,13.4.5,69.4h77.2V731Zm219.6,0h-72.1v13.4h72.2Zm-141.7-64.4V731h69.7V666.6ZM1156.9,731l.1,13.4.5,69.4h77.2V731Zm220.7,82.8.9,67h71.8v-67Zm72.8-82.8v82.8h74.1l.9-69.4.2-13.4Zm220,82.8,1.1,67h72v-67Zm-1.3-82.8.2,13.4h74.3V731Zm-218.7,0v82.8h74.1l.9-69.4.2-13.4Zm-72.8,82.8.9,67h71.8v-67Zm-1.1-82.8h-72.1v13.4h72.2Zm-141.7-64.4V731h69.7V666.6ZM1156.9,731l.1,13.4.5,69.4h77.2V731Zm220.7,82.8.9,67h71.8v-67Zm292.8,0,1.1,67h72v-67Zm-1.3-82.8.2,13.4h74.3V731Zm-291.5,82.8.9,67h71.8v-67Zm0,0,.9,67h71.8v-67Zm292.8,0,1.1,67h72v-67Zm-1.3-82.8.2,13.4h74.3V731Zm-291.5,82.8.9,67h71.8v-67Zm292.8,0,1.1,67h72v-67Zm-1.3-82.8.2,13.4h74.3V731Zm-291.5,82.8.9,67h71.8v-67Zm292.8,0,1.1,67h72v-67Zm-1.3-82.8.2,13.4h74.3V731Zm-291.5,82.8.9,67h71.8v-67Zm292.8,0,1.1,67h72v-67Zm-1.3-82.8.2,13.4h74.3V731Zm-291.5,82.8.9,67h71.8v-67Zm292.8,0,1.1,67h72v-67Zm-1.3-82.8.2,13.4h74.3V731Zm-291.5,82.8.9,67h71.8v-67Zm292.8,0,1.1,67h72v-67Zm-1.3-82.8.2,13.4h74.3V731Zm-291.5,82.8.9,67h71.8v-67Zm292.8,0,1.1,67h72v-67Zm-1.3-82.8.2,13.4h74.3V731Zm1.3,82.8,1.1,67h72v-67Zm0,0,1.1,67h72v-67Z"/><path class="cls-11" d="M1158.8,595.6H1008.7V470.7h.1C1038.1,520.3,1090.6,563.4,1158.8,595.6Z"/><path class="cls-25" d="M1597.1,880.9h-73.5l-.8,62.5h74.9Zm-362.3-67.1V943.4h69.7V813.8ZM1158,880.9h-78.4v62.5h78.9Zm585.6-285.3v71h82.8v-71Zm-584.8,0h-2.9l.5,71h78.3V624.8A580.91,580.91,0,0,1,1158.8,595.6ZM1008.7,813.8v67.1h70.9V813.8Zm368.9,0,.9,67.1h71.9V813.8Zm-1.1-82.8h-72.1v13.4h72.2Zm-141.7-64.4V731h69.7V666.6ZM1156.9,731l.1,13.4.5,69.4h77.2V731Zm0,0,.1,13.4h77.8V731Zm0,0,.1,13.4h77.8V731Zm0,0,.1,13.4h77.8V731Zm-148.2,13.4h70.9V666.6h-70.9v77.8ZM1156.9,731l.1,13.4h77.8V731Zm0,0,.1,13.4h77.8V731Zm0,0,.1,13.4h77.8V731Zm293.5,0v82.8h74.1l.9-69.4.2-13.4Zm-73.9,0h-72.1v13.4h72.2Zm73.9,0v13.4h75l.2-13.4Zm220,82.8,1.1,67.1h72V813.8ZM1376.5,731h-72.1v13.4h72.2Zm73.9,0v13.4h75l.2-13.4Zm-73.9,0h-72.1v13.4h72.2Zm73.9,0v13.4h75l.2-13.4Zm76.1-64.4.2-14.3c-24.7,2.4-50.1,3.6-76,3.6q-38.4,0-75.2-3.5l.2,14.3.9,64.4h73.9V666.7h76Zm-1.1,77.8.2-13.4h-75.2v13.4Zm-220.9,0h72.2l-.2-13.4h-72.1v13.4Zm290.7-77.8.6,64.4h73.3l.2,13.4h74.3V666.6ZM1450.4,731v13.4h75l.2-13.4Zm-73.9,0h-72.1v13.4h72.2Zm73.9,0v13.4h75l.2-13.4Zm-73.9,0h-72.1v13.4h72.2Zm73.9,0v13.4h75l.2-13.4Z"/><polygon class="cls-11" points="1743.6 744.4 1743.6 813.8 1670.4 813.8 1669.3 744.4 1743.6 744.4"/><polygon class="cls-26" points="1672.6 943.4 1597.6 943.4 1597.1 880.9 1671.5 880.9 1672.6 943.4"/><polygon class="cls-26" points="1524.5 813.8 1523.6 880.9 1450.4 880.9 1450.4 813.8 1524.5 813.8"/><polygon class="cls-27" points="1234.8 880.9 1234.8 943.4 1158.5 943.4 1158 880.9 1234.8 880.9"/><rect class="cls-27" x="1008.7" y="744.4" width="70.9" height="69.4"/><polygon class="cls-27" points="1523.6 880.9 1522.7 943.4 1450.4 943.4 1450.4 880.9 1523.6 880.9"/><rect class="cls-27" x="1743.6" y="813.8" width="82.8" height="67.1"/><polygon class="cls-27" points="1743.6 880.9 1743.6 943.4 1672.6 943.4 1671.5 880.9 1743.6 880.9"/><rect class="cls-28" x="1008.7" y="595.6" width="70.9" height="71"/><rect class="cls-28" x="1008.7" y="880.9" width="70.9" height="62.5"/><polygon class="cls-28" points="1450.4 880.9 1450.4 943.4 1379.4 943.4 1378.5 880.9 1450.4 880.9"/><polygon class="cls-28" points="1379.4 943.4 1304.5 943.4 1304.5 880.9 1378.5 880.9 1379.4 943.4"/><rect class="cls-28" x="1743.6" y="731" width="82.8" height="82.8"/><rect class="cls-28" x="1743.6" y="880.9" width="82.8" height="62.5"/><rect class="cls-26" x="1743.6" y="666.6" width="82.8" height="64.4"/><path class="cls-26" d="M1826.4,544.3v51.3h-83.8C1774.1,580.7,1802.3,563.5,1826.4,544.3Z"/><polygon class="cls-26" points="1156.4 666.6 1079.6 666.6 1079.6 595.6 1155.9 595.6 1156.4 666.6"/><polygon class="cls-28" points="1158 880.9 1079.6 880.9 1079.6 813.8 1157.5 813.8 1158 880.9"/><polygon class="cls-28" points="1157.5 813.8 1079.6 813.8 1079.6 744.4 1157 744.4 1157.5 813.8"/><polygon class="cls-27" points="1156.9 731 1079.6 731 1079.6 666.6 1156.4 666.6 1156.9 731"/><polygon class="cls-26" points="1157 744.4 1079.6 744.4 1079.6 731 1156.9 731 1157 744.4"/><polygon class="cls-28" points="1234.8 813.8 1234.8 880.9 1158 880.9 1157.5 813.8 1234.8 813.8"/><line class="cls-5" x1="1595.2" y1="666.6" x2="1595" y2="642.9"/><line class="cls-5" x1="1669.1" y1="731" x2="1668" y2="666.6"/><path class="cls-27" d="M1743.6,595.6v71H1668l-.7-42a565,565,0,0,0,75.2-29Z"/><polygon class="cls-28" points="1671.5 880.9 1597.1 880.9 1596.5 813.8 1670.4 813.8 1671.5 880.9"/><polygon class="cls-28" points="1597.1 880.9 1523.6 880.9 1524.5 813.8 1596.5 813.8 1597.1 880.9"/><polygon class="cls-27" points="1378.5 880.9 1304.5 880.9 1304.5 813.8 1377.6 813.8 1378.5 880.9"/><rect class="cls-26" x="1234.8" y="744.4" width="69.7" height="69.4"/><polygon class="cls-28" points="1596.5 813.8 1524.5 813.8 1525.4 744.4 1595.9 744.4 1596.5 813.8"/><polygon class="cls-28" points="1377.6 813.8 1304.5 813.8 1304.5 744.4 1376.7 744.4 1377.6 813.8"/><polygon class="cls-28" points="1526.5 666.6 1525.6 731 1450.4 731 1450.4 666.6 1526.5 666.6"/><polygon class="cls-27" points="1670.4 813.8 1596.5 813.8 1595.9 744.4 1669.3 744.4 1670.4 813.8"/><polygon class="cls-27" points="1450.4 744.4 1450.4 813.8 1377.6 813.8 1376.7 744.4 1450.4 744.4"/><polygon class="cls-27" points="1595.8 731 1525.6 731 1526.5 666.6 1595.2 666.6 1595.8 731"/><polygon class="cls-27" points="1376.5 731 1304.5 731 1304.5 666.6 1375.6 666.6 1376.5 731"/><path class="cls-27" d="M1304.5,642.1v24.5h-69.7V624.8A682.53,682.53,0,0,0,1304.5,642.1Z"/><polygon class="cls-26" points="1234.8 666.6 1234.8 731 1156.9 731 1156.4 666.6 1234.8 666.6"/><polygon class="cls-26" points="1595.9 744.4 1525.4 744.4 1525.6 731 1595.8 731 1595.9 744.4"/><polygon class="cls-26" points="1450.4 731 1450.4 744.4 1376.7 744.4 1376.5 731 1450.4 731"/><polygon class="cls-11" points="1669.3 744.4 1595.9 744.4 1595.8 731 1669.1 731 1669.3 744.4"/><rect class="cls-11" x="1234.8" y="731" width="69.7" height="13.4"/><path class="cls-11" d="M1668,666.6H1526.4l.2-14.3a707.1,707.1,0,0,0,140.7-27.7Z"/><path class="cls-11" d="M1375.6,666.6h-71.2V642.1q34.35,6.75,71,10.2Z"/><path class="cls-11" d="M81.5,259.3s9.6,36.6,9.8,68.4c.2,34.1-9.8,73-9.8,73s-9.4-40.3-9.2-74C72.6,296.6,81.5,259.3,81.5,259.3Z"/><path class="cls-11" d="M83.8,258.1s8.7,2.4,20.3,14.2,13.8,20.6,13.8,20.6c8.2-8.1,7.3-22.4-2.1-32S92,250,83.8,258.1Z"/><path class="cls-11" d="M83.7,254.5s7.9-5.2,26-7.8,27.2.1,27.2.1c-1.5-10-14.5-16.3-29.2-14.2S82.2,244.5,83.7,254.5Z"/><path class="cls-11" d="M79.3,257.9s-8.7,2.4-20.3,14.2-13.8,20.6-13.8,20.6c-8.2-8.1-7.3-22.4,2.1-32S71.1,249.9,79.3,257.9Z"/><path class="cls-11" d="M79.8,254.3s-7.9-5.2-26-7.8-27.2.1-27.2.1c1.5-10,14.5-16.3,29.2-14.2S81.3,244.3,79.8,254.3Z"/><path class="cls-11" d="M81.7,205s7.6,10.7,7.8,20.1c.2,10.1-7.5,21.6-7.5,21.6s-7.4-11.8-7.3-21.8C74.8,216,81.7,205,81.7,205Z"/><path class="cls-12" d="M200.5,160.5s5.9,22.6,6,42.2c.1,21.1-6,45-6,45s-5.8-24.9-5.6-45.6C195,183.5,200.5,160.5,200.5,160.5Z"/><path class="cls-29" d="M201.9,159.7s5.4,1.5,12.5,8.8,8.5,12.7,8.5,12.7c5.1-5,4.5-13.8-1.3-19.8S207,154.8,201.9,159.7Z"/><path class="cls-29" d="M201.8,157.5s4.9-3.2,16-4.8,16.8,0,16.8,0c-.9-6.1-9-10.1-18-8.7S200.9,151.4,201.8,157.5Z"/><path class="cls-29" d="M199.1,159.6s-5.4,1.5-12.5,8.8-8.5,12.7-8.5,12.7c-5.1-5-4.5-13.8,1.3-19.8S194.1,154.7,199.1,159.6Z"/><path class="cls-29" d="M199.5,157.4s-4.9-3.2-16-4.8-16.8,0-16.8,0c.9-6.1,9-10.1,18-8.7S200.4,151.2,199.5,157.4Z"/><path class="cls-12" d="M200.6,127s4.7,6.6,4.8,12.4c.1,6.2-4.6,13.3-4.6,13.3s-4.6-7.3-4.5-13.4C196.4,133.8,200.6,127,200.6,127Z"/><path class="cls-12" d="M85.9,81.2s4.2,16,4.3,29.9c.1,14.9-4.3,31.9-4.3,31.9s-4.1-17.6-4-32.3C82,97.5,85.9,81.2,85.9,81.2Z"/><path class="cls-29" d="M86.8,80.7s3.8,1,8.9,6.2,6,9,6,9c3.6-3.5,3.2-9.8-.9-14S90.4,77.2,86.8,80.7Z"/><path class="cls-29" d="M86.8,79.1s3.5-2.3,11.3-3.4,11.9,0,11.9,0c-.6-4.4-6.3-7.1-12.8-6.2S86.2,74.8,86.8,79.1Z"/><path class="cls-29" d="M84.9,80.6s-3.8,1-8.9,6.2-6,9-6,9c-3.6-3.5-3.2-9.8.9-14S81.3,77.1,84.9,80.6Z"/><path class="cls-29" d="M85.1,79s-3.5-2.3-11.3-3.4-11.9,0-11.9,0c.6-4.4,6.3-7.1,12.8-6.2S85.7,74.7,85.1,79Z"/><path class="cls-12" d="M85.9,57.5s3.3,4.7,3.4,8.8c.1,4.4-3.3,9.4-3.3,9.4s-3.2-5.2-3.2-9.5C82.9,62.3,85.9,57.5,85.9,57.5Z"/><path class="cls-12" d="M802.5,244.2l-61.3-61.3a99.45,99.45,0,0,0-25.4,61.3Z"/><path class="cls-12" d="M802.5,254.9H715.8a99.12,99.12,0,0,0,25.4,61.3Z"/><path class="cls-12" d="M810.1,150a99.12,99.12,0,0,0-61.3,25.4l61.3,61.3Z"/><path class="cls-12" d="M820.8,150v86.7l61.3-61.3A99.12,99.12,0,0,0,820.8,150Z"/><path class="cls-12" d="M828.3,244.2H915a99.12,99.12,0,0,0-25.4-61.3Z"/><path class="cls-12" d="M828.3,254.9l61.3,61.3A99.45,99.45,0,0,0,915,254.9Z"/><path class="cls-12" d="M810.1,262.5l-61.3,61.3a99.45,99.45,0,0,0,61.3,25.4Z"/><path class="cls-12" d="M820.8,262.5v86.7a99.12,99.12,0,0,0,61.3-25.4Z"/><polygon class="cls-12" points="815.2 348.8 829.7 374 844.3 399.1 815.2 399.1 786.1 399.1 800.7 373.9 815.2 348.8"/><path class="cls-30" d="M270.6,234H694c0-103.8-94.8-188-211.7-188S270.6,130.2,270.6,234Z"/><path class="cls-31" d="M296.4,234H664.8c0-90.4-82.5-163.6-184.2-163.6S296.4,143.6,296.4,234Z"/><path class="cls-13" d="M330,234H634c0-74.5-68.1-135-152-135S330,159.5,330,234Z"/><path class="cls-1" d="M354,234H608.5c0-62.4-57-113-127.2-113S354,171.6,354,234Z"/><text class="cls-32" transform="translate(1354.03 224.82)">THE GAME</text></svg>